<?xml version="1.0" encoding="UTF-8" standalone="no"?><svg xmlns="http://www.w3.org/2000/svg" xmlns:xlink="http://www.w3.org/1999/xlink" contentScriptType="application/ecmascript" contentStyleType="text/css" height="327px" preserveAspectRatio="none" style="width:1198px;height:327px;" version="1.1" viewBox="0 0 1198 327" width="1198px" zoomAndPan="magnify"><defs><filter height="300%" id="flxhdnd48ukss" width="300%" x="-1" y="-1"><feGaussianBlur result="blurOut" stdDeviation="2.0"/><feColorMatrix in="blurOut" result="blurOut2" type="matrix" values="0 0 0 0 0 0 0 0 0 0 0 0 0 0 0 0 0 0 .4 0"/><feOffset dx="4.0" dy="4.0" in="blurOut2" result="blurOut3"/><feBlend in="SourceGraphic" in2="blurOut3" mode="normal"/></filter></defs><g><!--cluster League Simulation--><polygon fill="#FFFFFF" filter="url(#flxhdnd48ukss)" points="22,24,164,24,171,48.2793,559,48.2793,559,115,22,115,22,24" style="stroke: #808080; stroke-width: 1.5;"/><line style="stroke: #808080; stroke-width: 1.5;" x1="22" x2="171" y1="48.2793" y2="48.2793"/><text fill="#000000" font-family="monospace" font-size="14" font-weight="bold" lengthAdjust="spacingAndGlyphs" textLength="136" x="26" y="40.0752">League Simulation</text><!--cluster Parallel Monte Carlo--><polygon fill="#FFFFFF" filter="url(#flxhdnd48ukss)" points="583,24,749,24,756,48.2793,1176,48.2793,1176,315,583,315,583,24" style="stroke: #808080; stroke-width: 1.5;"/><line style="stroke: #808080; stroke-width: 1.5;" x1="583" x2="756" y1="48.2793" y2="48.2793"/><text fill="#000000" font-family="monospace" font-size="14" font-weight="bold" lengthAdjust="spacingAndGlyphs" textLength="160" x="587" y="40.0752">Parallel Monte Carlo</text><!--entity Input Parser--><rect fill="#FFFFFF" filter="url(#flxhdnd48ukss)" height="38.2793" style="stroke: #808080; stroke-width: 1.5;" width="116" x="38" y="61"/><rect fill="#FFFFFF" height="5" style="stroke: #808080; stroke-width: 1.5;" width="10" x="33" y="66"/><rect fill="#FFFFFF" height="5" style="stroke: #808080; stroke-width: 1.5;" width="10" x="33" y="89.2793"/><text fill="#000000" font-family="monospace" font-size="14" lengthAdjust="spacingAndGlyphs" textLength="96" x="48" y="85.0752">Input Parser</text><!--entity Settings--><rect fill="#FFFFFF" filter="url(#flxhdnd48ukss)" height="38.2793" style="stroke: #808080; stroke-width: 1.5;" width="84" x="189" y="61"/><rect fill="#FFFFFF" height="5" style="stroke: #808080; stroke-width: 1.5;" width="10" x="184" y="66"/><rect fill="#FFFFFF" height="5" style="stroke: #808080; stroke-width: 1.5;" width="10" x="184" y="89.2793"/><text fill="#000000" font-family="monospace" font-size="14" lengthAdjust="spacingAndGlyphs" textLength="64" x="199" y="85.0752">Settings</text><!--entity Simulation--><rect fill="#FFFFFF" filter="url(#flxhdnd48ukss)" height="38.2793" style="stroke: #808080; stroke-width: 1.5;" width="100" x="308" y="61"/><rect fill="#FFFFFF" height="5" style="stroke: #808080; stroke-width: 1.5;" width="10" x="303" y="66"/><rect fill="#FFFFFF" height="5" style="stroke: #808080; stroke-width: 1.5;" width="10" x="303" y="89.2793"/><text fill="#000000" font-family="monospace" font-size="14" lengthAdjust="spacingAndGlyphs" textLength="80" x="318" y="85.0752">Simulation</text><!--entity Evaluation--><rect fill="#FFFFFF" filter="url(#flxhdnd48ukss)" height="38.2793" style="stroke: #808080; stroke-width: 1.5;" width="100" x="443" y="61"/><rect fill="#FFFFFF" height="5" style="stroke: #808080; stroke-width: 1.5;" width="10" x="438" y="66"/><rect fill="#FFFFFF" height="5" style="stroke: #808080; stroke-width: 1.5;" width="10" x="438" y="89.2793"/><text fill="#000000" font-family="monospace" font-size="14" lengthAdjust="spacingAndGlyphs" textLength="80" x="453" y="85.0752">Evaluation</text><!--entity Cloud Storage--><rect fill="#87CEEB" filter="url(#flxhdnd48ukss)" height="38.2793" style="stroke: #808080; stroke-width: 1.5;" width="124" x="881" y="61"/><rect fill="#87CEEB" height="5" style="stroke: #808080; stroke-width: 1.5;" width="10" x="876" y="66"/><rect fill="#87CEEB" height="5" style="stroke: #808080; stroke-width: 1.5;" width="10" x="876" y="89.2793"/><text fill="#000000" font-family="monospace" font-size="14" lengthAdjust="spacingAndGlyphs" textLength="104" x="891" y="85.0752">Cloud Storage</text><!--entity Cloud Datastore--><rect fill="#87CEEB" filter="url(#flxhdnd48ukss)" height="38.2793" style="stroke: #808080; stroke-width: 1.5;" width="140" x="1020" y="261"/><rect fill="#87CEEB" height="5" style="stroke: #808080; stroke-width: 1.5;" width="10" x="1015" y="266"/><rect fill="#87CEEB" height="5" style="stroke: #808080; stroke-width: 1.5;" width="10" x="1015" y="289.2793"/><text fill="#000000" font-family="monospace" font-size="14" lengthAdjust="spacingAndGlyphs" textLength="120" x="1030" y="285.0752">Cloud Datastore</text><!--entity Task Queue--><rect fill="#87CEEB" filter="url(#flxhdnd48ukss)" height="38.2793" style="stroke: #808080; stroke-width: 1.5;" width="100" x="849" y="162"/><rect fill="#87CEEB" height="5" style="stroke: #808080; stroke-width: 1.5;" width="10" x="844" y="167"/><rect fill="#87CEEB" height="5" style="stroke: #808080; stroke-width: 1.5;" width="10" x="844" y="190.2793"/><text fill="#000000" font-family="monospace" font-size="14" lengthAdjust="spacingAndGlyphs" textLength="80" x="859" y="186.0752">Task Queue</text><!--entity Web Application--><rect fill="#FFFFFF" filter="url(#flxhdnd48ukss)" height="38.2793" style="stroke: #808080; stroke-width: 1.5;" width="140" x="706" y="61"/><rect fill="#FFFFFF" height="5" style="stroke: #808080; stroke-width: 1.5;" width="10" x="701" y="66"/><rect fill="#FFFFFF" height="5" style="stroke: #808080; stroke-width: 1.5;" width="10" x="701" y="89.2793"/><text fill="#000000" font-family="monospace" font-size="14" lengthAdjust="spacingAndGlyphs" textLength="120" x="716" y="85.0752">Web Application</text><!--entity Web API--><rect fill="#FFFFFF" filter="url(#flxhdnd48ukss)" height="38.2793" style="stroke: #808080; stroke-width: 1.5;" width="76" x="738" y="162"/><rect fill="#FFFFFF" height="5" style="stroke: #808080; stroke-width: 1.5;" width="10" x="733" y="167"/><rect fill="#FFFFFF" height="5" style="stroke: #808080; stroke-width: 1.5;" width="10" x="733" y="190.2793"/><text fill="#000000" font-family="monospace" font-size="14" lengthAdjust="spacingAndGlyphs" textLength="56" x="748" y="186.0752">Web API</text><!--entity Monte Carlo Backend--><rect fill="#FFFFFF" filter="url(#flxhdnd48ukss)" height="38.2793" style="stroke: #808080; stroke-width: 1.5;" width="172" x="813" y="261"/><rect fill="#FFFFFF" height="5" style="stroke: #808080; stroke-width: 1.5;" width="10" x="808" y="266"/><rect fill="#FFFFFF" height="5" style="stroke: #808080; stroke-width: 1.5;" width="10" x="808" y="289.2793"/><text fill="#000000" font-family="monospace" font-size="14" lengthAdjust="spacingAndGlyphs" textLength="152" x="823" y="285.0752">Monte Carlo Backend</text><!--entity League Simulation--><rect fill="#FFFFFF" filter="url(#flxhdnd48ukss)" height="38.2793" style="stroke: #808080; stroke-width: 1.5;" width="156" x="599" y="261"/><rect fill="#FFFFFF" height="5" style="stroke: #808080; stroke-width: 1.5;" width="10" x="594" y="266"/><rect fill="#FFFFFF" height="5" style="stroke: #808080; stroke-width: 1.5;" width="10" x="594" y="289.2793"/><text fill="#000000" font-family="monospace" font-size="14" lengthAdjust="spacingAndGlyphs" textLength="136" x="609" y="285.0752">League Simulation</text><!--link Input Parser to Settings--><path d="M154.008,80 C163.911,80 173.814,80 183.716,80 " fill="none" id="Input Parser-Settings" style="stroke: #A80036; stroke-width: 1.0;"/><polygon fill="#A80036" points="188.895,80,179.895,76,183.895,80,179.895,84,188.895,80" style="stroke: #A80036; stroke-width: 1.0;"/><!--link Settings to Simulation--><path d="M273.168,80 C283.045,80 292.921,80 302.798,80 " fill="none" id="Settings-Simulation" style="stroke: #A80036; stroke-width: 1.0;"/><polygon fill="#A80036" points="307.962,80,298.962,76,302.962,80,298.962,84,307.962,80" style="stroke: #A80036; stroke-width: 1.0;"/><!--link Simulation to Evaluation--><path d="M408.098,80 C417.982,80 427.867,80 437.752,80 " fill="none" id="Simulation-Evaluation" style="stroke: #A80036; stroke-width: 1.0;"/><polygon fill="#A80036" points="442.921,80,433.921,76,437.921,80,433.921,84,442.921,80" style="stroke: #A80036; stroke-width: 1.0;"/><!--link Web Application to Web API--><path d="M776,99.158 C776,115.346 776,139.132 776,156.715 " fill="none" id="Web Application-Web API" style="stroke: #A80036; stroke-width: 1.0;"/><polygon fill="#A80036" points="776,161.957,780,152.957,776,156.957,772,152.957,776,161.957" style="stroke: #A80036; stroke-width: 1.0;"/><!--link Web Application to Cloud Storage--><path d="M846.127,80 C856.009,80 865.891,80 875.773,80 " fill="none" id="Web Application-Cloud Storage" style="stroke: #A80036; stroke-width: 1.0;"/><polygon fill="#A80036" points="880.941,80,871.941,76,875.941,80,871.941,84,880.941,80" style="stroke: #A80036; stroke-width: 1.0;"/><!--link Web API to Task Queue--><path d="M814.438,181 C824.189,181 833.94,181 843.692,181 " fill="none" id="Web API-Task Queue" style="stroke: #A80036; stroke-width: 1.0;"/><polygon fill="#A80036" points="848.791,181,839.791,177,843.791,181,839.791,185,848.791,181" style="stroke: #A80036; stroke-width: 1.0;"/><!--link Task Queue to Monte Carlo Backend--><path d="M899,200.245 C899,215.961 899,238.7346 899,255.7539 " fill="none" id="Task Queue-Monte Carlo Backend" style="stroke: #A80036; stroke-width: 1.0;"/><polygon fill="#A80036" points="899,260.8369,903,251.8369,899,255.8369,895,251.8369,899,260.8369" style="stroke: #A80036; stroke-width: 1.0;"/><!--link Monte Carlo Backend to Cloud Datastore--><path d="M985.174,280 C995.054,280 1004.933,280 1014.81,280 " fill="none" id="Monte Carlo Backend-Cloud Datastore" style="stroke: #A80036; stroke-width: 1.0;"/><polygon fill="#A80036" points="1019.98,280,1010.98,276,1014.98,280,1010.98,284,1019.98,280" style="stroke: #A80036; stroke-width: 1.0;"/><!--link League Simulation to Monte Carlo Backend--><path d="M760.534,280 C777.6,280 795.591,280 812.751,280 " fill="none" id="League Simulation-Monte Carlo Backend" style="stroke: #A80036; stroke-width: 1.0; stroke-dasharray: 7.0,7.0;"/><polygon fill="#A80036" points="755.269,280,764.269,284,760.269,280,764.269,276,755.269,280" style="stroke: #A80036; stroke-width: 1.0;"/><text fill="#000000" font-family="sans-serif" font-size="13" lengthAdjust="spacingAndGlyphs" textLength="21" x="773.5" y="273.4951">use</text><!--
@startuml

skinparam component {
    FontColor black
    BackgroundColor white
    BorderColor grey
    FontName Monospaced
}

skinparam package {
    FontColor black
    BackgroundColor white
    BorderColor grey
    FontName Monospaced
}

package "League Simulation" {
[Input Parser] -> [Settings]
[Settings] -> [Simulation]
[Simulation] -> [Evaluation]
}

skinparam component {
    backgroundColor<<google>> Skyblue
    FontColor<<google>> White
}

package "Parallel Monte Carlo" {

[Cloud Storage] #Skyblue
[Cloud Datastore] #Skyblue
[Task Queue] #Skyblue

[Web Application] - -> [Web API]
[Web Application] -> [Cloud Storage]
[Web API] -> [Task Queue]
[Task Queue] - -> [Monte Carlo Backend]
[Monte Carlo Backend] -> [Cloud Datastore]
[League Simulation] <. [Monte Carlo Backend] : use
}

@enduml

PlantUML version 1.2018.01(Sun Jan 28 19:08:22 CET 2018)
(GPL source distribution)
Java Runtime: OpenJDK Runtime Environment
JVM: OpenJDK 64-Bit Server VM
Java Version: 1.8.0_152-release-1136-b29
Operating System: Windows 7
OS Version: 6.1
Default Encoding: Cp1252
Language: de
Country: DE
--></g></svg>