<?xml version="1.0" encoding="UTF-8" standalone="no"?><svg xmlns="http://www.w3.org/2000/svg" xmlns:xlink="http://www.w3.org/1999/xlink" contentScriptType="application/ecmascript" contentStyleType="text/css" height="1236px" preserveAspectRatio="none" style="width:924px;height:1236px;" version="1.1" viewBox="0 0 924 1236" width="924px" zoomAndPan="magnify"><defs><filter height="300%" id="f6s18qb1ux8il" width="300%" x="-1" y="-1"><feGaussianBlur result="blurOut" stdDeviation="2.0"/><feColorMatrix in="blurOut" result="blurOut2" type="matrix" values="0 0 0 0 0 0 0 0 0 0 0 0 0 0 0 0 0 0 .4 0"/><feOffset dx="4.0" dy="4.0" in="blurOut2" result="blurOut3"/><feBlend in="SourceGraphic" in2="blurOut3" mode="normal"/></filter></defs><g><text fill="#000000" font-family="sans-serif" font-size="18" lengthAdjust="spacingAndGlyphs" textLength="69" x="169.5" y="31.1406">Web API</text><line style="stroke: #000000; stroke-width: 2.0;" x1="10" x2="10" y1="12.4551" y2="1224.6191"/><ellipse cx="204.5" cy="45.0957" fill="#000000" filter="url(#f6s18qb1ux8il)" rx="10" ry="10" style="stroke: none; stroke-width: 1.0;"/><rect fill="#FFFFFF" filter="url(#f6s18qb1ux8il)" height="35.668" rx="12.5" ry="12.5" style="stroke: #808080; stroke-width: 1.5;" width="139" x="135" y="90.0957"/><text fill="#000000" font-family="monospace" font-size="12" lengthAdjust="spacingAndGlyphs" textLength="112" x="152" y="112.1602">Start Simulation</text><rect fill="#FFFFFF" filter="url(#f6s18qb1ux8il)" height="35.668" rx="12.5" ry="12.5" style="stroke: #808080; stroke-width: 1.5;" width="139" x="135" y="160.7637"/><text fill="#000000" font-family="monospace" font-size="12" lengthAdjust="spacingAndGlyphs" textLength="112" x="152" y="182.8281">Split Iterations</text><rect fill="#000000" filter="url(#f6s18qb1ux8il)" height="6" rx="2.5" ry="2.5" style="stroke: #000000; stroke-width: 1.0;" width="369" x="20" y="231.4316"/><rect fill="#FFFFFF" filter="url(#f6s18qb1ux8il)" height="35.668" rx="12.5" ry="12.5" style="stroke: #808080; stroke-width: 1.5;" width="139" x="34" y="257.4316"/><text fill="#000000" font-family="monospace" font-size="12" lengthAdjust="spacingAndGlyphs" textLength="119" x="44" y="279.4961">Iteration 1-5.000</text><rect fill="#FFFFFF" filter="url(#f6s18qb1ux8il)" height="35.668" rx="12.5" ry="12.5" style="stroke: #808080; stroke-width: 1.5;" width="139" x="34" y="328.0996"/><text fill="#000000" font-family="monospace" font-size="12" lengthAdjust="spacingAndGlyphs" textLength="119" x="44" y="350.1641">Add Task to Queue</text><rect fill="#FFFFFF" filter="url(#f6s18qb1ux8il)" height="35.668" rx="12.5" ry="12.5" style="stroke: #808080; stroke-width: 1.5;" width="174" x="201" y="257.4316"/><text fill="#000000" font-family="monospace" font-size="12" lengthAdjust="spacingAndGlyphs" textLength="154" x="211" y="279.4961">Iteration 5.001-10.000</text><rect fill="#FFFFFF" filter="url(#f6s18qb1ux8il)" height="35.668" rx="12.5" ry="12.5" style="stroke: #808080; stroke-width: 1.5;" width="139" x="218.5" y="328.0996"/><text fill="#000000" font-family="monospace" font-size="12" lengthAdjust="spacingAndGlyphs" textLength="119" x="228.5" y="350.1641">Add Task to Queue</text><rect fill="#000000" filter="url(#f6s18qb1ux8il)" height="6" rx="2.5" ry="2.5" style="stroke: #000000; stroke-width: 1.0;" width="369" x="20" y="383.7676"/><rect fill="#FFFFFF" filter="url(#f6s18qb1ux8il)" height="35.668" rx="12.5" ry="12.5" style="stroke: #808080; stroke-width: 1.5;" width="139" x="135" y="1063.2832"/><text fill="#000000" font-family="monospace" font-size="12" lengthAdjust="spacingAndGlyphs" textLength="119" x="145" y="1085.3477">Aggregate Results</text><rect fill="#FFFFFF" filter="url(#f6s18qb1ux8il)" height="35.668" rx="12.5" ry="12.5" style="stroke: #808080; stroke-width: 1.5;" width="139" x="135" y="1133.9512"/><text fill="#000000" font-family="monospace" font-size="12" lengthAdjust="spacingAndGlyphs" textLength="119" x="145" y="1156.0156">Save final Result</text><ellipse cx="204.5" cy="1214.6191" fill="none" filter="url(#f6s18qb1ux8il)" rx="10" ry="10" style="stroke: #000000; stroke-width: 1.0;"/><ellipse cx="205" cy="1215.1191" fill="#000000" filter="url(#f6s18qb1ux8il)" rx="6" ry="6" style="stroke: none; stroke-width: 1.0;"/><rect fill="#87CEEB" height="1212.1641" style="stroke: #87CEEB; stroke-width: 1.0;" width="321" x="398" y="12.4551"/><text fill="#000000" font-family="sans-serif" font-size="18" lengthAdjust="spacingAndGlyphs" textLength="99" x="509" y="31.1406">Task Queue</text><line style="stroke: #000000; stroke-width: 2.0;" x1="398" x2="398" y1="12.4551" y2="1224.6191"/><rect fill="#FFFFFF" filter="url(#f6s18qb1ux8il)" height="35.668" rx="12.5" ry="12.5" style="stroke: #808080; stroke-width: 1.5;" width="153" x="488" y="597.3574"/><text fill="#000000" font-family="monospace" font-size="12" lengthAdjust="spacingAndGlyphs" textLength="126" x="505" y="619.4219">Start new Instance</text><polygon fill="#FFFFFF" filter="url(#f6s18qb1ux8il)" points="501.5,548.4395,627.5,548.4395,639.5,560.4395,627.5,572.4395,501.5,572.4395,489.5,560.4395,501.5,548.4395" style="stroke: #808080; stroke-width: 1.5;"/><text fill="#000000" font-family="sans-serif" font-size="11" lengthAdjust="spacingAndGlyphs" textLength="24" x="568.5" y="583.8584">&lt;=12</text><text fill="#000000" font-family="monospace" font-size="12" lengthAdjust="spacingAndGlyphs" textLength="126" x="501.5" y="564.6699">Running Instances?</text><text fill="#000000" font-family="sans-serif" font-size="11" lengthAdjust="spacingAndGlyphs" textLength="18" x="639.5" y="558.0225">&gt;12</text><polygon fill="#FFFFFF" filter="url(#f6s18qb1ux8il)" points="564.5,657.9434,576.5,669.9434,564.5,681.9434,552.5,669.9434,564.5,657.9434" style="stroke: #808080; stroke-width: 1.5;"/><polygon fill="#FFFFFF" filter="url(#f6s18qb1ux8il)" points="470,486.6035,659,486.6035,671,498.6035,659,510.6035,470,510.6035,458,498.6035,470,486.6035" style="stroke: #808080; stroke-width: 1.5;"/><text fill="#000000" font-family="sans-serif" font-size="11" lengthAdjust="spacingAndGlyphs" textLength="12" x="568.5" y="522.0225">no</text><text fill="#000000" font-family="monospace" font-size="12" lengthAdjust="spacingAndGlyphs" textLength="189" x="470" y="502.834">Backend Instance available?</text><text fill="#000000" font-family="sans-serif" font-size="11" lengthAdjust="spacingAndGlyphs" textLength="18" x="440" y="496.1865">yes</text><rect fill="#FFFFFF" filter="url(#f6s18qb1ux8il)" height="35.668" rx="12.5" ry="12.5" style="stroke: #808080; stroke-width: 1.5;" width="223" x="453" y="740.9434"/><text fill="#000000" font-family="monospace" font-size="12" lengthAdjust="spacingAndGlyphs" textLength="203" x="463" y="763.0078">Push Task to Backend Instance</text><rect fill="#FFFFFF" filter="url(#f6s18qb1ux8il)" height="35.668" rx="12.5" ry="12.5" style="stroke: #808080; stroke-width: 1.5;" width="181" x="474" y="968.6152"/><text fill="#000000" font-family="monospace" font-size="12" lengthAdjust="spacingAndGlyphs" textLength="154" x="491" y="990.6797">Remove Task from Queue</text><polygon fill="#FFFFFF" filter="url(#f6s18qb1ux8il)" points="526,424.7676,603,424.7676,615,436.7676,603,448.7676,526,448.7676,514,436.7676,526,424.7676" style="stroke: #808080; stroke-width: 1.5;"/><text fill="#000000" font-family="sans-serif" font-size="11" lengthAdjust="spacingAndGlyphs" textLength="47" x="568.5" y="460.1865">not empty</text><text fill="#000000" font-family="monospace" font-size="12" lengthAdjust="spacingAndGlyphs" textLength="77" x="526" y="440.998">Task Queue?</text><text fill="#000000" font-family="sans-serif" font-size="11" lengthAdjust="spacingAndGlyphs" textLength="29" x="485" y="434.3506">empty</text><text fill="#000000" font-family="sans-serif" font-size="18" lengthAdjust="spacingAndGlyphs" textLength="173" x="729" y="31.1406">Monte Carlo Backend</text><line style="stroke: #000000; stroke-width: 2.0;" x1="719" x2="719" y1="12.4551" y2="1224.6191"/><rect fill="#FFFFFF" filter="url(#f6s18qb1ux8il)" height="51.3359" rx="12.5" ry="12.5" style="stroke: #808080; stroke-width: 1.5;" width="174" x="729" y="811.6113"/><text fill="#000000" font-family="monospace" font-size="12" lengthAdjust="spacingAndGlyphs" textLength="147" x="746" y="833.6758">Run League Simulation</text><text fill="#000000" font-family="monospace" font-size="12" lengthAdjust="spacingAndGlyphs" textLength="112" x="760" y="849.3438">5.000 Iterations</text><rect fill="#FFFFFF" filter="url(#f6s18qb1ux8il)" height="35.668" rx="12.5" ry="12.5" style="stroke: #808080; stroke-width: 1.5;" width="111" x="760.5" y="897.9473"/><text fill="#000000" font-family="monospace" font-size="12" lengthAdjust="spacingAndGlyphs" textLength="84" x="777.5" y="920.0117">Save Results</text><line style="stroke: #000000; stroke-width: 2.0;" x1="912" x2="912" y1="12.4551" y2="1224.6191"/><line style="stroke: #A80036; stroke-width: 1.5;" x1="204.5" x2="204.5" y1="55.0957" y2="90.0957"/><polygon fill="#A80036" points="200.5,80.0957,204.5,90.0957,208.5,80.0957,204.5,84.0957" style="stroke: #A80036; stroke-width: 1.0;"/><line style="stroke: #A80036; stroke-width: 1.5;" x1="204.5" x2="204.5" y1="125.7637" y2="160.7637"/><polygon fill="#A80036" points="200.5,150.7637,204.5,160.7637,208.5,150.7637,204.5,154.7637" style="stroke: #A80036; stroke-width: 1.0;"/><line style="stroke: #A80036; stroke-width: 1.5;" x1="103.5" x2="103.5" y1="293.0996" y2="328.0996"/><polygon fill="#A80036" points="99.5,318.0996,103.5,328.0996,107.5,318.0996,103.5,322.0996" style="stroke: #A80036; stroke-width: 1.0;"/><line style="stroke: #A80036; stroke-width: 1.5;" x1="288" x2="288" y1="293.0996" y2="328.0996"/><polygon fill="#A80036" points="284,318.0996,288,328.0996,292,318.0996,288,322.0996" style="stroke: #A80036; stroke-width: 1.0;"/><line style="stroke: #A80036; stroke-width: 1.5;" x1="103.5" x2="103.5" y1="237.4316" y2="257.4316"/><polygon fill="#A80036" points="99.5,247.4316,103.5,257.4316,107.5,247.4316,103.5,251.4316" style="stroke: #A80036; stroke-width: 1.0;"/><line style="stroke: #A80036; stroke-width: 1.5;" x1="288" x2="288" y1="237.4316" y2="257.4316"/><polygon fill="#A80036" points="284,247.4316,288,257.4316,292,247.4316,288,251.4316" style="stroke: #A80036; stroke-width: 1.0;"/><line style="stroke: #A80036; stroke-width: 1.5;" x1="103.5" x2="103.5" y1="363.7676" y2="383.7676"/><polygon fill="#A80036" points="99.5,373.7676,103.5,383.7676,107.5,373.7676,103.5,377.7676" style="stroke: #A80036; stroke-width: 1.0;"/><line style="stroke: #A80036; stroke-width: 1.5;" x1="288" x2="288" y1="363.7676" y2="383.7676"/><polygon fill="#A80036" points="284,373.7676,288,383.7676,292,373.7676,288,377.7676" style="stroke: #A80036; stroke-width: 1.0;"/><line style="stroke: #A80036; stroke-width: 1.5;" x1="204.5" x2="204.5" y1="196.4316" y2="231.4316"/><polygon fill="#A80036" points="200.5,221.4316,204.5,231.4316,208.5,221.4316,204.5,225.4316" style="stroke: #A80036; stroke-width: 1.0;"/><line style="stroke: #A80036; stroke-width: 1.5;" x1="204.5" x2="204.5" y1="1098.9512" y2="1133.9512"/><polygon fill="#A80036" points="200.5,1123.9512,204.5,1133.9512,208.5,1123.9512,204.5,1127.9512" style="stroke: #A80036; stroke-width: 1.0;"/><line style="stroke: #A80036; stroke-width: 1.5;" x1="204.5" x2="204.5" y1="1169.6191" y2="1204.6191"/><polygon fill="#A80036" points="200.5,1194.6191,204.5,1204.6191,208.5,1194.6191,204.5,1198.6191" style="stroke: #A80036; stroke-width: 1.0;"/><line style="stroke: #A80036; stroke-width: 1.5;" x1="564.5" x2="564.5" y1="572.4395" y2="597.3574"/><polygon fill="#A80036" points="560.5,587.3574,564.5,597.3574,568.5,587.3574,564.5,591.3574" style="stroke: #A80036; stroke-width: 1.0;"/><line style="stroke: #A80036; stroke-width: 1.5;" x1="639.5" x2="651.5" y1="560.4395" y2="560.4395"/><polygon fill="#A80036" points="647.5,605.1914,651.5,615.1914,655.5,605.1914,651.5,609.1914" style="stroke: #A80036; stroke-width: 1.5;"/><line style="stroke: #A80036; stroke-width: 1.5;" x1="651.5" x2="651.5" y1="560.4395" y2="669.9434"/><line style="stroke: #A80036; stroke-width: 1.5;" x1="651.5" x2="576.5" y1="669.9434" y2="669.9434"/><polygon fill="#A80036" points="586.5,665.9434,576.5,669.9434,586.5,673.9434,582.5,669.9434" style="stroke: #A80036; stroke-width: 1.0;"/><line style="stroke: #A80036; stroke-width: 1.5;" x1="564.5" x2="564.5" y1="633.0254" y2="657.9434"/><polygon fill="#A80036" points="560.5,647.9434,564.5,657.9434,568.5,647.9434,564.5,651.9434" style="stroke: #A80036; stroke-width: 1.0;"/><line style="stroke: #A80036; stroke-width: 1.5;" x1="564.5" x2="564.5" y1="510.6035" y2="548.4395"/><polygon fill="#A80036" points="560.5,538.4395,564.5,548.4395,568.5,538.4395,564.5,542.4395" style="stroke: #A80036; stroke-width: 1.0;"/><line style="stroke: #A80036; stroke-width: 1.5;" x1="564.5" x2="564.5" y1="681.9434" y2="693.9434"/><line style="stroke: #A80036; stroke-width: 1.5;" x1="564.5" x2="683" y1="693.9434" y2="693.9434"/><polygon fill="#A80036" points="679,606.2734,683,596.2734,687,606.2734,683,602.2734" style="stroke: #A80036; stroke-width: 1.5;"/><line style="stroke: #A80036; stroke-width: 1.5;" x1="683" x2="683" y1="498.6035" y2="693.9434"/><line style="stroke: #A80036; stroke-width: 1.5;" x1="683" x2="671" y1="498.6035" y2="498.6035"/><polygon fill="#A80036" points="681,494.6035,671,498.6035,681,502.6035,677,498.6035" style="stroke: #A80036; stroke-width: 1.0;"/><line style="stroke: #A80036; stroke-width: 1.5;" x1="458" x2="446" y1="498.6035" y2="498.6035"/><polygon fill="#A80036" points="442,592.2734,446,602.2734,450,592.2734,446,596.2734" style="stroke: #A80036; stroke-width: 1.5;"/><line style="stroke: #A80036; stroke-width: 1.5;" x1="446" x2="446" y1="498.6035" y2="705.9434"/><line style="stroke: #A80036; stroke-width: 1.5;" x1="446" x2="564.5" y1="705.9434" y2="705.9434"/><line style="stroke: #A80036; stroke-width: 1.5;" x1="564.5" x2="564.5" y1="705.9434" y2="740.9434"/><polygon fill="#A80036" points="560.5,730.9434,564.5,740.9434,568.5,730.9434,564.5,734.9434" style="stroke: #A80036; stroke-width: 1.0;"/><line style="stroke: #A80036; stroke-width: 1.5;" x1="564.5" x2="564.5" y1="448.7676" y2="486.6035"/><polygon fill="#A80036" points="560.5,476.6035,564.5,486.6035,568.5,476.6035,564.5,480.6035" style="stroke: #A80036; stroke-width: 1.0;"/><line style="stroke: #A80036; stroke-width: 1.5;" x1="564.5" x2="564.5" y1="1004.2832" y2="1016.2832"/><line style="stroke: #A80036; stroke-width: 1.5;" x1="564.5" x2="695" y1="1016.2832" y2="1016.2832"/><polygon fill="#A80036" points="691,736.5254,695,726.5254,699,736.5254,695,732.5254" style="stroke: #A80036; stroke-width: 1.5;"/><line style="stroke: #A80036; stroke-width: 1.5;" x1="695" x2="695" y1="436.7676" y2="1016.2832"/><line style="stroke: #A80036; stroke-width: 1.5;" x1="695" x2="615" y1="436.7676" y2="436.7676"/><polygon fill="#A80036" points="625,432.7676,615,436.7676,625,440.7676,621,436.7676" style="stroke: #A80036; stroke-width: 1.0;"/><line style="stroke: #A80036; stroke-width: 1.5;" x1="514" x2="422" y1="436.7676" y2="436.7676"/><polygon fill="#A80036" points="418,731.2754,422,741.2754,426,731.2754,422,735.2754" style="stroke: #A80036; stroke-width: 1.5;"/><line style="stroke: #A80036; stroke-width: 1.5;" x1="422" x2="422" y1="436.7676" y2="1045.7832"/><line style="stroke: #A80036; stroke-width: 1.5;" x1="422" x2="204.5" y1="1045.7832" y2="1045.7832"/><line style="stroke: #A80036; stroke-width: 1.5;" x1="204.5" x2="204.5" y1="1045.7832" y2="1063.2832"/><polygon fill="#A80036" points="200.5,1053.2832,204.5,1063.2832,208.5,1053.2832,204.5,1057.2832" style="stroke: #A80036; stroke-width: 1.0;"/><line style="stroke: #A80036; stroke-width: 1.5;" x1="816" x2="816" y1="862.9473" y2="897.9473"/><polygon fill="#A80036" points="812,887.9473,816,897.9473,820,887.9473,816,891.9473" style="stroke: #A80036; stroke-width: 1.0;"/><line style="stroke: #A80036; stroke-width: 1.5;" x1="564.5" x2="564.5" y1="776.6113" y2="794.1113"/><line style="stroke: #A80036; stroke-width: 1.5;" x1="564.5" x2="816" y1="794.1113" y2="794.1113"/><line style="stroke: #A80036; stroke-width: 1.5;" x1="816" x2="816" y1="794.1113" y2="811.6113"/><polygon fill="#A80036" points="812,801.6113,816,811.6113,820,801.6113,816,805.6113" style="stroke: #A80036; stroke-width: 1.0;"/><line style="stroke: #A80036; stroke-width: 1.5;" x1="816" x2="816" y1="933.6152" y2="951.1152"/><line style="stroke: #A80036; stroke-width: 1.5;" x1="816" x2="564.5" y1="951.1152" y2="951.1152"/><line style="stroke: #A80036; stroke-width: 1.5;" x1="564.5" x2="564.5" y1="951.1152" y2="968.6152"/><polygon fill="#A80036" points="560.5,958.6152,564.5,968.6152,568.5,958.6152,564.5,962.6152" style="stroke: #A80036; stroke-width: 1.0;"/><line style="stroke: #A80036; stroke-width: 1.5;" x1="204.5" x2="204.5" y1="389.7676" y2="407.2676"/><line style="stroke: #A80036; stroke-width: 1.5;" x1="204.5" x2="564.5" y1="407.2676" y2="407.2676"/><line style="stroke: #A80036; stroke-width: 1.5;" x1="564.5" x2="564.5" y1="407.2676" y2="424.7676"/><polygon fill="#A80036" points="560.5,414.7676,564.5,424.7676,568.5,414.7676,564.5,418.7676" style="stroke: #A80036; stroke-width: 1.0;"/><!--
@startuml

skinparam activity {
    FontColor black
    BackgroundColor white
    BorderColor grey
    FontName Monospaced
}
skinparam activityDiamond {
    FontColor black
    BackgroundColor white
    BorderColor grey
    FontName Monospaced
    FontSize 12
}

|Web API|
start
: Start Simulation;
: Split Iterations;
fork
    :Iteration 1-5.000;
    :Add Task to Queue;
fork again
    :Iteration 5.001-10.000;
    :Add Task to Queue;
end fork
|#Skyblue|Task Queue|
while (Task Queue?) is (not empty)
    while (Backend Instance available?) is (no)
        if(Running Instances?) then (<=12)
        : Start new Instance;
        else (>12)
        endif
    endwhile (yes)
    :Push Task to Backend Instance;
    |Monte Carlo Backend|
    : Run League Simulation
       5.000 Iterations;
    : Save Results;
    |Task Queue|
    : Remove Task from Queue;
endwhile (empty)
|Web API|
:Aggregate Results;
:Save final Result;
stop
@enduml

PlantUML version 1.2018.01(Sun Jan 28 19:08:22 CET 2018)
(GPL source distribution)
Java Runtime: OpenJDK Runtime Environment
JVM: OpenJDK 64-Bit Server VM
Java Version: 1.8.0_152-release-1136-b29
Operating System: Windows 7
OS Version: 6.1
Default Encoding: Cp1252
Language: de
Country: DE
--></g></svg>