<?xml version="1.0" encoding="UTF-8" standalone="no"?><svg xmlns="http://www.w3.org/2000/svg" xmlns:xlink="http://www.w3.org/1999/xlink" contentScriptType="application/ecmascript" contentStyleType="text/css" height="784px" preserveAspectRatio="none" style="width:2059px;height:784px;" version="1.1" viewBox="0 0 2059 784" width="2059px" zoomAndPan="magnify"><defs><filter height="300%" id="f254bid32pt42" width="300%" x="-1" y="-1"><feGaussianBlur result="blurOut" stdDeviation="2.0"/><feColorMatrix in="blurOut" result="blurOut2" type="matrix" values="0 0 0 0 0 0 0 0 0 0 0 0 0 0 0 0 0 0 .4 0"/><feOffset dx="4.0" dy="4.0" in="blurOut2" result="blurOut3"/><feBlend in="SourceGraphic" in2="blurOut3" mode="normal"/></filter></defs><g><!--cluster Prediction--><polygon fill="#FFFFFF" filter="url(#f254bid32pt42)" points="22,24,100,24,107,47.6094,601,47.6094,601,441,22,441,22,24" style="stroke: #000000; stroke-width: 1.5;"/><line style="stroke: #000000; stroke-width: 1.5;" x1="22" x2="107" y1="47.6094" y2="47.6094"/><text fill="#000000" font-family="sans-serif" font-size="14" font-weight="bold" lengthAdjust="spacingAndGlyphs" textLength="72" x="26" y="40.5332">Prediction</text><!--cluster Simulation--><polygon fill="#FFFFFF" filter="url(#f254bid32pt42)" points="625,45,704,45,711,68.6094,1288,68.6094,1288,772,625,772,625,45" style="stroke: #000000; stroke-width: 1.5;"/><line style="stroke: #000000; stroke-width: 1.5;" x1="625" x2="711" y1="68.6094" y2="68.6094"/><text fill="#000000" font-family="sans-serif" font-size="14" font-weight="bold" lengthAdjust="spacingAndGlyphs" textLength="73" x="629" y="61.5332">Simulation</text><!--cluster Lineup--><polygon fill="#FFFFFF" filter="url(#f254bid32pt42)" points="1312,45,1366,45,1373,68.6094,2037,68.6094,2037,399.5,1312,399.5,1312,45" style="stroke: #000000; stroke-width: 1.5;"/><line style="stroke: #000000; stroke-width: 1.5;" x1="1312" x2="1373" y1="68.6094" y2="68.6094"/><text fill="#000000" font-family="sans-serif" font-size="14" font-weight="bold" lengthAdjust="spacingAndGlyphs" textLength="48" x="1316" y="61.5332">Lineup</text><!--class PredictionModel--><rect fill="#FFFFFF" filter="url(#f254bid32pt42)" height="61.8359" id="PredictionModel" style="stroke: #808080; stroke-width: 1.5;" width="313" x="271.5" y="74"/><ellipse cx="371.25" cy="90" fill="#B4A7E5" rx="11" ry="11" style="stroke: #808080; stroke-width: 1.0;"/><path d="M372.25,87 L372.25,93 L374.25,93 L374.7344,93 L375.25,93.625 L375.25,94 L375.25,94.375 L374.7344,95 L374.25,95 L368.25,95 L367.7656,95 L367.25,94.375 L367.25,94 L367.25,93.625 L367.7656,93 L368.25,93 L370.25,93 L370.25,87 L368.25,87 L367.7656,87 L367.25,86.375 L367.25,86 L367.25,85.625 L367.7656,85 L368.25,85 L374.25,85 L374.7344,85 L375.25,85.625 L375.25,86 L375.25,86.375 L374.7344,87 L374.25,87 L372.25,87 Z "/><text fill="#000000" font-family="monospace" font-size="12" font-style="italic" lengthAdjust="spacingAndGlyphs" textLength="105" x="391.75" y="94.2305">PredictionModel</text><line style="stroke: #808080; stroke-width: 1.5;" x1="272.5" x2="583.5" y1="106" y2="106"/><line style="stroke: #808080; stroke-width: 1.5;" x1="272.5" x2="583.5" y1="114" y2="114"/><ellipse cx="282.5" cy="126.418" fill="#84BE84" rx="3" ry="3" style="stroke: #038048; stroke-width: 1.0;"/><text fill="#000000" font-family="sans-serif" font-size="11" lengthAdjust="spacingAndGlyphs" textLength="287" x="291.5" y="129.4189">ResultPrediction calculatePrediction(Player one, Player two)</text><!--class ChessPredictionModel--><rect fill="#FFFFFF" filter="url(#f254bid32pt42)" height="214.0313" id="ChessPredictionModel" style="stroke: #808080; stroke-width: 1.5;" width="411" x="173.5" y="211"/><ellipse cx="304.75" cy="227" fill="#ADD1B2" rx="11" ry="11" style="stroke: #808080; stroke-width: 1.0;"/><path d="M306.75,223.5 Q306.9531,223 307.1875,222.75 Q307.4219,222.5 307.6875,222.5 Q308.1563,222.5 308.4531,222.7813 Q308.75,223.0625 308.75,223.7188 L308.75,225.2813 Q308.75,225.9375 308.4688,226.2188 Q308.1875,226.5 307.75,226.5 Q307.3594,226.5 307.1094,226.3281 Q306.8594,226.1563 306.75,225.7031 Q306.7031,225.3906 306.5313,225.2188 Q306.2188,224.8906 305.6563,224.6953 Q305.0938,224.5 304.5313,224.5 Q303.8281,224.5 303.2422,224.7813 Q302.6563,225.0625 302.2031,225.6875 Q301.75,226.3125 301.75,227.1719 L301.75,228.0938 Q301.75,229.125 302.5938,229.8125 Q303.4375,230.5 304.9375,230.5 Q305.8281,230.5 306.4531,230.2969 Q306.8125,230.1875 307.2188,229.8281 Q307.4844,229.625 307.625,229.5625 Q307.7656,229.5 307.9375,229.5 Q308.2656,229.5 308.5078,229.7578 Q308.75,230.0156 308.75,230.375 Q308.75,230.7188 308.4063,231.125 Q307.9063,231.7188 307.1094,232.0469 Q306.0625,232.5 304.7813,232.5 Q303.2813,232.5 302.0781,231.9063 Q301.1094,231.4375 300.4297,230.4219 Q299.75,229.4063 299.75,228.2031 L299.75,227.1094 Q299.75,225.8594 300.3516,224.7656 Q300.9531,223.6719 302.0078,223.0859 Q303.0625,222.5 304.25,222.5 Q304.9688,222.5 305.5938,222.75 Q306.2188,223 306.75,223.5 Z "/><text fill="#000000" font-family="monospace" font-size="12" lengthAdjust="spacingAndGlyphs" textLength="140" x="325.25" y="231.2305">ChessPredictionModel</text><line style="stroke: #808080; stroke-width: 1.5;" x1="174.5" x2="583.5" y1="243" y2="243"/><ellipse cx="184.5" cy="255.418" fill="none" rx="3" ry="3" style="stroke: #038048; stroke-width: 1.0;"/><text fill="#000000" font-family="sans-serif" font-size="11" lengthAdjust="spacingAndGlyphs" textLength="103" x="193.5" y="258.4189">boolean useEloRating</text><ellipse cx="184.5" cy="269.2539" fill="none" rx="3" ry="3" style="stroke: #038048; stroke-width: 1.0;"/><text fill="#000000" font-family="sans-serif" font-size="11" lengthAdjust="spacingAndGlyphs" textLength="139" x="193.5" y="272.2549">boolean useHomeAdvantage</text><ellipse cx="184.5" cy="283.0898" fill="none" rx="3" ry="3" style="stroke: #038048; stroke-width: 1.0;"/><text fill="#000000" font-family="sans-serif" font-size="11" lengthAdjust="spacingAndGlyphs" textLength="157" x="193.5" y="286.0908">boolean usePlayerPerformances</text><ellipse cx="184.5" cy="296.9258" fill="none" rx="3" ry="3" style="stroke: #038048; stroke-width: 1.0;"/><text fill="#000000" font-family="sans-serif" font-size="11" lengthAdjust="spacingAndGlyphs" textLength="157" x="193.5" y="299.9268">boolean useRatingRegularization</text><line style="stroke: #808080; stroke-width: 1.5;" x1="174.5" x2="583.5" y1="306.3438" y2="306.3438"/><rect fill="#F24D5C" height="6" style="stroke: #C82930; stroke-width: 1.0;" width="6" x="181.5" y="315.7617"/><text fill="#000000" font-family="sans-serif" font-size="11" lengthAdjust="spacingAndGlyphs" textLength="300" x="193.5" y="321.7627">double calculateExpectedWinWhite(Player white, Player black)</text><rect fill="#F24D5C" height="6" style="stroke: #C82930; stroke-width: 1.0;" width="6" x="181.5" y="329.5977"/><text fill="#000000" font-family="sans-serif" font-size="11" lengthAdjust="spacingAndGlyphs" textLength="300" x="193.5" y="335.5986">double calculateExpectedWinBlack(double expectedWinWhite)</text><rect fill="#F24D5C" height="6" style="stroke: #C82930; stroke-width: 1.0;" width="6" x="181.5" y="343.4336"/><text fill="#000000" font-family="sans-serif" font-size="11" lengthAdjust="spacingAndGlyphs" textLength="291" x="193.5" y="349.4346">double calculateAdvantageWhite(double expectedWinWhite)</text><rect fill="#F24D5C" height="6" style="stroke: #C82930; stroke-width: 1.0;" width="6" x="181.5" y="357.2695"/><text fill="#000000" font-family="sans-serif" font-size="11" lengthAdjust="spacingAndGlyphs" textLength="256" x="193.5" y="363.2705">double calculateColorStrengthAsWhite(Player player)</text><rect fill="#F24D5C" height="6" style="stroke: #C82930; stroke-width: 1.0;" width="6" x="181.5" y="371.1055"/><text fill="#000000" font-family="sans-serif" font-size="11" lengthAdjust="spacingAndGlyphs" textLength="255" x="193.5" y="377.1064">double calculateColorStrengthAsBlack(Player player)</text><rect fill="#F24D5C" height="6" style="stroke: #C82930; stroke-width: 1.0;" width="6" x="181.5" y="384.9414"/><text fill="#000000" font-family="sans-serif" font-size="11" lengthAdjust="spacingAndGlyphs" textLength="282" x="193.5" y="390.9424">double calculateExpectedDraw(Player white, Player black)</text><rect fill="#F24D5C" height="6" style="stroke: #C82930; stroke-width: 1.0;" width="6" x="181.5" y="398.7773"/><text fill="#000000" font-family="sans-serif" font-size="11" lengthAdjust="spacingAndGlyphs" textLength="303" x="193.5" y="404.7783">double calculateColorStrengthDraw(Player white, Player black)</text><rect fill="#F24D5C" height="6" style="stroke: #C82930; stroke-width: 1.0;" width="6" x="181.5" y="412.6133"/><text fill="#000000" font-family="sans-serif" font-size="11" lengthAdjust="spacingAndGlyphs" textLength="385" x="193.5" y="418.6143">double incorporateDrawProbability(double expectedWin, double expectedDraw)</text><!--class ResultPrediction--><rect fill="#FFFFFF" filter="url(#f254bid32pt42)" height="89.5078" id="ResultPrediction" style="stroke: #808080; stroke-width: 1.5;" width="176" x="38" y="60"/><ellipse cx="67.4" cy="76" fill="#ADD1B2" rx="11" ry="11" style="stroke: #808080; stroke-width: 1.0;"/><path d="M69.4,72.5 Q69.6031,72 69.8375,71.75 Q70.0719,71.5 70.3375,71.5 Q70.8063,71.5 71.1031,71.7813 Q71.4,72.0625 71.4,72.7188 L71.4,74.2813 Q71.4,74.9375 71.1188,75.2188 Q70.8375,75.5 70.4,75.5 Q70.0094,75.5 69.7594,75.3281 Q69.5094,75.1563 69.4,74.7031 Q69.3531,74.3906 69.1813,74.2188 Q68.8688,73.8906 68.3063,73.6953 Q67.7438,73.5 67.1813,73.5 Q66.4781,73.5 65.8922,73.7813 Q65.3063,74.0625 64.8531,74.6875 Q64.4,75.3125 64.4,76.1719 L64.4,77.0938 Q64.4,78.125 65.2438,78.8125 Q66.0875,79.5 67.5875,79.5 Q68.4781,79.5 69.1031,79.2969 Q69.4625,79.1875 69.8688,78.8281 Q70.1344,78.625 70.275,78.5625 Q70.4156,78.5 70.5875,78.5 Q70.9156,78.5 71.1578,78.7578 Q71.4,79.0156 71.4,79.375 Q71.4,79.7188 71.0563,80.125 Q70.5563,80.7188 69.7594,81.0469 Q68.7125,81.5 67.4313,81.5 Q65.9313,81.5 64.7281,80.9063 Q63.7594,80.4375 63.0797,79.4219 Q62.4,78.4063 62.4,77.2031 L62.4,76.1094 Q62.4,74.8594 63.0016,73.7656 Q63.6031,72.6719 64.6578,72.0859 Q65.7125,71.5 66.9,71.5 Q67.6188,71.5 68.2438,71.75 Q68.8688,72 69.4,72.5 Z "/><text fill="#000000" font-family="monospace" font-size="12" lengthAdjust="spacingAndGlyphs" textLength="112" x="84.6" y="80.2305">ResultPrediction</text><line style="stroke: #808080; stroke-width: 1.5;" x1="39" x2="213" y1="92" y2="92"/><rect fill="none" height="6" style="stroke: #C82930; stroke-width: 1.0;" width="6" x="46" y="101.418"/><text fill="#000000" font-family="sans-serif" font-size="11" lengthAdjust="spacingAndGlyphs" textLength="148" x="58" y="107.4189">double expectedWinPlayerOne</text><rect fill="none" height="6" style="stroke: #C82930; stroke-width: 1.0;" width="6" x="46" y="115.2539"/><text fill="#000000" font-family="sans-serif" font-size="11" lengthAdjust="spacingAndGlyphs" textLength="107" x="58" y="121.2549">double expectedDraw</text><rect fill="none" height="6" style="stroke: #C82930; stroke-width: 1.0;" width="6" x="46" y="129.0898"/><text fill="#000000" font-family="sans-serif" font-size="11" lengthAdjust="spacingAndGlyphs" textLength="150" x="58" y="135.0908">double expectedWinPlayerTwo</text><line style="stroke: #808080; stroke-width: 1.5;" x1="39" x2="213" y1="141.5078" y2="141.5078"/><!--class LeagueSimulation--><rect fill="#FFFFFF" filter="url(#f254bid32pt42)" height="117.1797" id="LeagueSimulation" style="stroke: #808080; stroke-width: 1.5;" width="236" x="723" y="259.5"/><rect fill="#FFFFFF" height="32" style="stroke: #808080; stroke-width: 1.5;" width="236" x="723" y="259.5"/><ellipse cx="738" cy="275.5" fill="#A9DCDF" rx="11" ry="11" style="stroke: #808080; stroke-width: 1.0;"/><path d="M739.75,277 L736.4531,277 L736.0156,278 L736.0156,278 L736.4844,278 L737,278.625 L737,279 L737,279.375 L736.4844,280 L736.0156,280 L734.125,280 L733.5156,280 L733,279.375 L733,279 L733,278.625 L733.5156,278 L734.125,278 L736.4375,272 L735.5625,272 L734.5156,272 L734,271.375 L734,271 L734,270.625 L734.5156,270 L735.5625,270 L739.2344,270 L741.9219,278 L742.4844,278 L742.4844,278 L743,278.625 L743,279 L743,279.375 L742.4844,280 L741.9219,280 L740.0313,280 L739.5156,280 L739,279.375 L739,279 L739,278.625 L739.5156,278 L740.0313,278 L740.0313,278 L739.75,277 Z M739.2031,275 L738,271.4219 L736.9688,275 L739.2031,275 Z "/><text fill="#000000" font-family="monospace" font-size="12" font-style="italic" lengthAdjust="spacingAndGlyphs" textLength="112" x="752" y="279.7305">LeagueSimulation</text><rect fill="#FFFFFF" height="17.0938" style="stroke: #000000; stroke-width: 1.0; stroke-dasharray: 2.0,2.0;" width="90" x="872" y="256.5"/><text fill="#000000" font-family="sans-serif" font-size="12" font-style="italic" lengthAdjust="spacingAndGlyphs" textLength="88" x="873" y="269.957">T extends Match</text><line style="stroke: #808080; stroke-width: 1.5;" x1="724" x2="958" y1="291.5" y2="291.5"/><polygon fill="none" points="734,298.918,738,302.918,734,306.918,730,302.918" style="stroke: #B38D22; stroke-width: 1.0;"/><text fill="#000000" font-family="sans-serif" font-size="11" lengthAdjust="spacingAndGlyphs" textLength="176" x="743" y="306.9189">RandomGenerator randomGenerator</text><polygon fill="none" points="734,312.7539,738,316.7539,734,320.7539,730,316.7539" style="stroke: #B38D22; stroke-width: 1.0;"/><text fill="#000000" font-family="sans-serif" font-size="11" lengthAdjust="spacingAndGlyphs" textLength="116" x="743" y="320.7549">LeagueSettings settings</text><polygon fill="none" points="734,326.5898,738,330.5898,734,334.5898,730,330.5898" style="stroke: #B38D22; stroke-width: 1.0;"/><text fill="#000000" font-family="sans-serif" font-size="11" lengthAdjust="spacingAndGlyphs" textLength="84" x="743" y="334.5908">List&lt;T&gt; matchList</text><line style="stroke: #808080; stroke-width: 1.5;" x1="724" x2="958" y1="341.0078" y2="341.0078"/><ellipse cx="734" cy="353.4258" fill="#84BE84" rx="3" ry="3" style="stroke: #038048; stroke-width: 1.0;"/><text fill="#000000" font-family="sans-serif" font-size="11" font-style="italic" lengthAdjust="spacingAndGlyphs" textLength="138" x="743" y="356.4268">List&lt;T&gt; initializeMatchList()</text><ellipse cx="734" cy="367.2617" fill="#84BE84" rx="3" ry="3" style="stroke: #038048; stroke-width: 1.0;"/><text fill="#000000" font-family="sans-serif" font-size="11" font-style="italic" lengthAdjust="spacingAndGlyphs" textLength="163" x="743" y="370.2627">SimulationResult runSimulation()</text><!--class ChessLeagueSimulation--><rect fill="#FFFFFF" filter="url(#f254bid32pt42)" height="48" id="ChessLeagueSimulation" style="stroke: #808080; stroke-width: 1.5;" width="179" x="751.5" y="81"/><ellipse cx="766.5" cy="97" fill="#ADD1B2" rx="11" ry="11" style="stroke: #808080; stroke-width: 1.0;"/><path d="M768.5,93.5 Q768.7031,93 768.9375,92.75 Q769.1719,92.5 769.4375,92.5 Q769.9063,92.5 770.2031,92.7813 Q770.5,93.0625 770.5,93.7188 L770.5,95.2813 Q770.5,95.9375 770.2188,96.2188 Q769.9375,96.5 769.5,96.5 Q769.1094,96.5 768.8594,96.3281 Q768.6094,96.1563 768.5,95.7031 Q768.4531,95.3906 768.2813,95.2188 Q767.9688,94.8906 767.4063,94.6953 Q766.8438,94.5 766.2813,94.5 Q765.5781,94.5 764.9922,94.7813 Q764.4063,95.0625 763.9531,95.6875 Q763.5,96.3125 763.5,97.1719 L763.5,98.0938 Q763.5,99.125 764.3438,99.8125 Q765.1875,100.5 766.6875,100.5 Q767.5781,100.5 768.2031,100.2969 Q768.5625,100.1875 768.9688,99.8281 Q769.2344,99.625 769.375,99.5625 Q769.5156,99.5 769.6875,99.5 Q770.0156,99.5 770.2578,99.7578 Q770.5,100.0156 770.5,100.375 Q770.5,100.7188 770.1563,101.125 Q769.6563,101.7188 768.8594,102.0469 Q767.8125,102.5 766.5313,102.5 Q765.0313,102.5 763.8281,101.9063 Q762.8594,101.4375 762.1797,100.4219 Q761.5,99.4063 761.5,98.2031 L761.5,97.1094 Q761.5,95.8594 762.1016,94.7656 Q762.7031,93.6719 763.7578,93.0859 Q764.8125,92.5 766,92.5 Q766.7188,92.5 767.3438,92.75 Q767.9688,93 768.5,93.5 Z "/><text fill="#000000" font-family="monospace" font-size="12" lengthAdjust="spacingAndGlyphs" textLength="147" x="780.5" y="101.2305">ChessLeagueSimulation</text><line style="stroke: #808080; stroke-width: 1.5;" x1="752.5" x2="929.5" y1="113" y2="113"/><line style="stroke: #808080; stroke-width: 1.5;" x1="752.5" x2="929.5" y1="121" y2="121"/><!--class LeagueSettings--><rect fill="#FFFFFF" filter="url(#f254bid32pt42)" height="131.0156" id="LeagueSettings" style="stroke: #808080; stroke-width: 1.5;" width="244" x="1017" y="252.5"/><ellipse cx="1032" cy="268.5" fill="#ADD1B2" rx="11" ry="11" style="stroke: #808080; stroke-width: 1.0;"/><path d="M1034,265 Q1034.2031,264.5 1034.4375,264.25 Q1034.6719,264 1034.9375,264 Q1035.4063,264 1035.7031,264.2813 Q1036,264.5625 1036,265.2188 L1036,266.7813 Q1036,267.4375 1035.7188,267.7188 Q1035.4375,268 1035,268 Q1034.6094,268 1034.3594,267.8281 Q1034.1094,267.6563 1034,267.2031 Q1033.9531,266.8906 1033.7813,266.7188 Q1033.4688,266.3906 1032.9063,266.1953 Q1032.3438,266 1031.7813,266 Q1031.0781,266 1030.4922,266.2813 Q1029.9063,266.5625 1029.4531,267.1875 Q1029,267.8125 1029,268.6719 L1029,269.5938 Q1029,270.625 1029.8438,271.3125 Q1030.6875,272 1032.1875,272 Q1033.0781,272 1033.7031,271.7969 Q1034.0625,271.6875 1034.4688,271.3281 Q1034.7344,271.125 1034.875,271.0625 Q1035.0156,271 1035.1875,271 Q1035.5156,271 1035.7578,271.2578 Q1036,271.5156 1036,271.875 Q1036,272.2188 1035.6563,272.625 Q1035.1563,273.2188 1034.3594,273.5469 Q1033.3125,274 1032.0313,274 Q1030.5313,274 1029.3281,273.4063 Q1028.3594,272.9375 1027.6797,271.9219 Q1027,270.9063 1027,269.7031 L1027,268.6094 Q1027,267.3594 1027.6016,266.2656 Q1028.2031,265.1719 1029.2578,264.5859 Q1030.3125,264 1031.5,264 Q1032.2188,264 1032.8438,264.25 Q1033.4688,264.5 1034,265 Z "/><text fill="#000000" font-family="monospace" font-size="12" lengthAdjust="spacingAndGlyphs" textLength="98" x="1046" y="272.7305">LeagueSettings</text><rect fill="#FFFFFF" height="17.0938" style="stroke: #000000; stroke-width: 1.0; stroke-dasharray: 2.0,2.0;" width="112" x="1152" y="249.5"/><text fill="#000000" font-family="sans-serif" font-size="12" font-style="italic" lengthAdjust="spacingAndGlyphs" textLength="110" x="1153" y="262.957">T extends Opponent</text><line style="stroke: #808080; stroke-width: 1.5;" x1="1018" x2="1260" y1="284.5" y2="284.5"/><text fill="#000000" font-family="sans-serif" font-size="11" lengthAdjust="spacingAndGlyphs" textLength="153" x="1023" y="299.9189">PredictionModel predictionModel</text><text fill="#000000" font-family="sans-serif" font-size="11" lengthAdjust="spacingAndGlyphs" textLength="185" x="1023" y="313.7549">AbstractLineupSelector lineupSelector</text><text fill="#000000" font-family="sans-serif" font-size="11" lengthAdjust="spacingAndGlyphs" textLength="100" x="1023" y="327.5908">List&lt;T&gt; opponentList</text><text fill="#000000" font-family="sans-serif" font-size="11" lengthAdjust="spacingAndGlyphs" textLength="101" x="1023" y="341.4268">int roundsPerSeason</text><text fill="#000000" font-family="sans-serif" font-size="11" lengthAdjust="spacingAndGlyphs" textLength="100" x="1023" y="355.2627">int roundsToSimulate</text><text fill="#000000" font-family="sans-serif" font-size="11" lengthAdjust="spacingAndGlyphs" textLength="228" x="1023" y="369.0986">Map&lt;Integer, List&lt;HeadToHeadMatch&gt;&gt; rounds</text><line style="stroke: #808080; stroke-width: 1.5;" x1="1018" x2="1260" y1="375.5156" y2="375.5156"/><!--class Match--><rect fill="#FFFFFF" filter="url(#f254bid32pt42)" height="144.8516" id="Match" style="stroke: #808080; stroke-width: 1.5;" width="202" x="828" y="488"/><ellipse cx="852.45" cy="504" fill="#A9DCDF" rx="11" ry="11" style="stroke: #808080; stroke-width: 1.0;"/><path d="M854.2,505.5 L850.9031,505.5 L850.4656,506.5 L850.4656,506.5 L850.9344,506.5 L851.45,507.125 L851.45,507.5 L851.45,507.875 L850.9344,508.5 L850.4656,508.5 L848.575,508.5 L847.9656,508.5 L847.45,507.875 L847.45,507.5 L847.45,507.125 L847.9656,506.5 L848.575,506.5 L850.8875,500.5 L850.0125,500.5 L848.9656,500.5 L848.45,499.875 L848.45,499.5 L848.45,499.125 L848.9656,498.5 L850.0125,498.5 L853.6844,498.5 L856.3719,506.5 L856.9344,506.5 L856.9344,506.5 L857.45,507.125 L857.45,507.5 L857.45,507.875 L856.9344,508.5 L856.3719,508.5 L854.4813,508.5 L853.9656,508.5 L853.45,507.875 L853.45,507.5 L853.45,507.125 L853.9656,506.5 L854.4813,506.5 L854.4813,506.5 L854.2,505.5 Z M853.6531,503.5 L852.45,499.9219 L851.4188,503.5 L853.6531,503.5 Z "/><text fill="#000000" font-family="monospace" font-size="12" font-style="italic" lengthAdjust="spacingAndGlyphs" textLength="35" x="868.55" y="508.2305">Match</text><rect fill="#FFFFFF" height="17.0938" style="stroke: #000000; stroke-width: 1.0; stroke-dasharray: 2.0,2.0;" width="112" x="921" y="485"/><text fill="#000000" font-family="sans-serif" font-size="12" font-style="italic" lengthAdjust="spacingAndGlyphs" textLength="110" x="922" y="498.457">T extends Opponent</text><line style="stroke: #808080; stroke-width: 1.5;" x1="829" x2="1029" y1="520" y2="520"/><polygon fill="none" points="839,527.418,843,531.418,839,535.418,835,531.418" style="stroke: #B38D22; stroke-width: 1.0;"/><text fill="#000000" font-family="sans-serif" font-size="11" lengthAdjust="spacingAndGlyphs" textLength="176" x="848" y="535.4189">RandomGenerator randomGenerator</text><polygon fill="none" points="839,541.2539,843,545.2539,839,549.2539,835,545.2539" style="stroke: #B38D22; stroke-width: 1.0;"/><text fill="#000000" font-family="sans-serif" font-size="11" lengthAdjust="spacingAndGlyphs" textLength="153" x="848" y="549.2549">PredictionModel predictionModel</text><polygon fill="none" points="839,555.0898,843,559.0898,839,563.0898,835,559.0898" style="stroke: #B38D22; stroke-width: 1.0;"/><text fill="#000000" font-family="sans-serif" font-size="11" lengthAdjust="spacingAndGlyphs" textLength="62" x="848" y="563.0908">T opponentA</text><polygon fill="none" points="839,568.9258,843,572.9258,839,576.9258,835,572.9258" style="stroke: #B38D22; stroke-width: 1.0;"/><text fill="#000000" font-family="sans-serif" font-size="11" lengthAdjust="spacingAndGlyphs" textLength="61" x="848" y="576.9268">T opponentB</text><polygon fill="none" points="839,582.7617,843,586.7617,839,590.7617,835,586.7617" style="stroke: #B38D22; stroke-width: 1.0;"/><text fill="#000000" font-family="sans-serif" font-size="11" lengthAdjust="spacingAndGlyphs" textLength="138" x="848" y="590.7627">MatchResult matchPrediction</text><polygon fill="none" points="839,596.5977,843,600.5977,839,604.5977,835,600.5977" style="stroke: #B38D22; stroke-width: 1.0;"/><text fill="#000000" font-family="sans-serif" font-size="11" lengthAdjust="spacingAndGlyphs" textLength="121" x="848" y="604.5986">MatchResult matchResult</text><line style="stroke: #808080; stroke-width: 1.5;" x1="829" x2="1029" y1="611.0156" y2="611.0156"/><ellipse cx="839" cy="623.4336" fill="#84BE84" rx="3" ry="3" style="stroke: #038048; stroke-width: 1.0;"/><text fill="#000000" font-family="sans-serif" font-size="11" font-style="italic" lengthAdjust="spacingAndGlyphs" textLength="123" x="848" y="626.4346">MatchResult playMatch()</text><!--class HeadToHeadMatch--><rect fill="#FFFFFF" filter="url(#f254bid32pt42)" height="48" id="HeadToHeadMatch" style="stroke: #808080; stroke-width: 1.5;" width="137" x="641.5" y="701"/><ellipse cx="656.5" cy="717" fill="#ADD1B2" rx="11" ry="11" style="stroke: #808080; stroke-width: 1.0;"/><path d="M658.5,713.5 Q658.7031,713 658.9375,712.75 Q659.1719,712.5 659.4375,712.5 Q659.9063,712.5 660.2031,712.7813 Q660.5,713.0625 660.5,713.7188 L660.5,715.2813 Q660.5,715.9375 660.2188,716.2188 Q659.9375,716.5 659.5,716.5 Q659.1094,716.5 658.8594,716.3281 Q658.6094,716.1563 658.5,715.7031 Q658.4531,715.3906 658.2813,715.2188 Q657.9688,714.8906 657.4063,714.6953 Q656.8438,714.5 656.2813,714.5 Q655.5781,714.5 654.9922,714.7813 Q654.4063,715.0625 653.9531,715.6875 Q653.5,716.3125 653.5,717.1719 L653.5,718.0938 Q653.5,719.125 654.3438,719.8125 Q655.1875,720.5 656.6875,720.5 Q657.5781,720.5 658.2031,720.2969 Q658.5625,720.1875 658.9688,719.8281 Q659.2344,719.625 659.375,719.5625 Q659.5156,719.5 659.6875,719.5 Q660.0156,719.5 660.2578,719.7578 Q660.5,720.0156 660.5,720.375 Q660.5,720.7188 660.1563,721.125 Q659.6563,721.7188 658.8594,722.0469 Q657.8125,722.5 656.5313,722.5 Q655.0313,722.5 653.8281,721.9063 Q652.8594,721.4375 652.1797,720.4219 Q651.5,719.4063 651.5,718.2031 L651.5,717.1094 Q651.5,715.8594 652.1016,714.7656 Q652.7031,713.6719 653.7578,713.0859 Q654.8125,712.5 656,712.5 Q656.7188,712.5 657.3438,712.75 Q657.9688,713 658.5,713.5 Z "/><text fill="#000000" font-family="monospace" font-size="12" lengthAdjust="spacingAndGlyphs" textLength="105" x="670.5" y="721.2305">HeadToHeadMatch</text><line style="stroke: #808080; stroke-width: 1.5;" x1="642.5" x2="777.5" y1="733" y2="733"/><line style="stroke: #808080; stroke-width: 1.5;" x1="642.5" x2="777.5" y1="741" y2="741"/><!--class TeamMatch--><rect fill="#FFFFFF" filter="url(#f254bid32pt42)" height="61.8359" id="TeamMatch" style="stroke: #808080; stroke-width: 1.5;" width="251" x="813.5" y="694"/><ellipse cx="903.25" cy="710" fill="#ADD1B2" rx="11" ry="11" style="stroke: #808080; stroke-width: 1.0;"/><path d="M905.25,706.5 Q905.4531,706 905.6875,705.75 Q905.9219,705.5 906.1875,705.5 Q906.6563,705.5 906.9531,705.7813 Q907.25,706.0625 907.25,706.7188 L907.25,708.2813 Q907.25,708.9375 906.9688,709.2188 Q906.6875,709.5 906.25,709.5 Q905.8594,709.5 905.6094,709.3281 Q905.3594,709.1563 905.25,708.7031 Q905.2031,708.3906 905.0313,708.2188 Q904.7188,707.8906 904.1563,707.6953 Q903.5938,707.5 903.0313,707.5 Q902.3281,707.5 901.7422,707.7813 Q901.1563,708.0625 900.7031,708.6875 Q900.25,709.3125 900.25,710.1719 L900.25,711.0938 Q900.25,712.125 901.0938,712.8125 Q901.9375,713.5 903.4375,713.5 Q904.3281,713.5 904.9531,713.2969 Q905.3125,713.1875 905.7188,712.8281 Q905.9844,712.625 906.125,712.5625 Q906.2656,712.5 906.4375,712.5 Q906.7656,712.5 907.0078,712.7578 Q907.25,713.0156 907.25,713.375 Q907.25,713.7188 906.9063,714.125 Q906.4063,714.7188 905.6094,715.0469 Q904.5625,715.5 903.2813,715.5 Q901.7813,715.5 900.5781,714.9063 Q899.6094,714.4375 898.9297,713.4219 Q898.25,712.4063 898.25,711.2031 L898.25,710.1094 Q898.25,708.8594 898.8516,707.7656 Q899.4531,706.6719 900.5078,706.0859 Q901.5625,705.5 902.75,705.5 Q903.4688,705.5 904.0938,705.75 Q904.7188,706 905.25,706.5 Z "/><text fill="#000000" font-family="monospace" font-size="12" lengthAdjust="spacingAndGlyphs" textLength="63" x="923.75" y="714.2305">TeamMatch</text><line style="stroke: #808080; stroke-width: 1.5;" x1="814.5" x2="1063.5" y1="726" y2="726"/><rect fill="none" height="6" style="stroke: #C82930; stroke-width: 1.0;" width="6" x="821.5" y="735.418"/><text fill="#000000" font-family="sans-serif" font-size="11" lengthAdjust="spacingAndGlyphs" textLength="225" x="833.5" y="741.4189">List&lt;HeadToHeadMatch&gt; headToHeadMatches</text><line style="stroke: #808080; stroke-width: 1.5;" x1="814.5" x2="1063.5" y1="747.8359" y2="747.8359"/><!--class Opponent--><rect fill="#FFFFFF" filter="url(#f254bid32pt42)" height="61.8359" id="Opponent" style="stroke: #808080; stroke-width: 1.5;" width="88" x="1065" y="529.5"/><ellipse cx="1080" cy="545.5" fill="#A9DCDF" rx="11" ry="11" style="stroke: #808080; stroke-width: 1.0;"/><path d="M1081.75,547 L1078.4531,547 L1078.0156,548 L1078.0156,548 L1078.4844,548 L1079,548.625 L1079,549 L1079,549.375 L1078.4844,550 L1078.0156,550 L1076.125,550 L1075.5156,550 L1075,549.375 L1075,549 L1075,548.625 L1075.5156,548 L1076.125,548 L1078.4375,542 L1077.5625,542 L1076.5156,542 L1076,541.375 L1076,541 L1076,540.625 L1076.5156,540 L1077.5625,540 L1081.2344,540 L1083.9219,548 L1084.4844,548 L1084.4844,548 L1085,548.625 L1085,549 L1085,549.375 L1084.4844,550 L1083.9219,550 L1082.0313,550 L1081.5156,550 L1081,549.375 L1081,549 L1081,548.625 L1081.5156,548 L1082.0313,548 L1082.0313,548 L1081.75,547 Z M1081.2031,545 L1080,541.4219 L1078.9688,545 L1081.2031,545 Z "/><text fill="#000000" font-family="monospace" font-size="12" font-style="italic" lengthAdjust="spacingAndGlyphs" textLength="56" x="1094" y="549.7305">Opponent</text><line style="stroke: #808080; stroke-width: 1.5;" x1="1066" x2="1152" y1="561.5" y2="561.5"/><polygon fill="none" points="1076,568.918,1080,572.918,1076,576.918,1072,572.918" style="stroke: #B38D22; stroke-width: 1.0;"/><text fill="#000000" font-family="sans-serif" font-size="11" lengthAdjust="spacingAndGlyphs" textLength="57" x="1085" y="576.9189">String name</text><line style="stroke: #808080; stroke-width: 1.5;" x1="1066" x2="1152" y1="583.3359" y2="583.3359"/><!--class Player--><rect fill="#FFFFFF" filter="url(#f254bid32pt42)" height="61.8359" id="Player" style="stroke: #808080; stroke-width: 1.5;" width="84" x="1188" y="529.5"/><ellipse cx="1207.5" cy="545.5" fill="#ADD1B2" rx="11" ry="11" style="stroke: #808080; stroke-width: 1.0;"/><path d="M1209.5,542 Q1209.7031,541.5 1209.9375,541.25 Q1210.1719,541 1210.4375,541 Q1210.9063,541 1211.2031,541.2813 Q1211.5,541.5625 1211.5,542.2188 L1211.5,543.7813 Q1211.5,544.4375 1211.2188,544.7188 Q1210.9375,545 1210.5,545 Q1210.1094,545 1209.8594,544.8281 Q1209.6094,544.6563 1209.5,544.2031 Q1209.4531,543.8906 1209.2813,543.7188 Q1208.9688,543.3906 1208.4063,543.1953 Q1207.8438,543 1207.2813,543 Q1206.5781,543 1205.9922,543.2813 Q1205.4063,543.5625 1204.9531,544.1875 Q1204.5,544.8125 1204.5,545.6719 L1204.5,546.5938 Q1204.5,547.625 1205.3438,548.3125 Q1206.1875,549 1207.6875,549 Q1208.5781,549 1209.2031,548.7969 Q1209.5625,548.6875 1209.9688,548.3281 Q1210.2344,548.125 1210.375,548.0625 Q1210.5156,548 1210.6875,548 Q1211.0156,548 1211.2578,548.2578 Q1211.5,548.5156 1211.5,548.875 Q1211.5,549.2188 1211.1563,549.625 Q1210.6563,550.2188 1209.8594,550.5469 Q1208.8125,551 1207.5313,551 Q1206.0313,551 1204.8281,550.4063 Q1203.8594,549.9375 1203.1797,548.9219 Q1202.5,547.9063 1202.5,546.7031 L1202.5,545.6094 Q1202.5,544.3594 1203.1016,543.2656 Q1203.7031,542.1719 1204.7578,541.5859 Q1205.8125,541 1207,541 Q1207.7188,541 1208.3438,541.25 Q1208.9688,541.5 1209.5,542 Z "/><text fill="#000000" font-family="monospace" font-size="12" lengthAdjust="spacingAndGlyphs" textLength="42" x="1222.5" y="549.7305">Player</text><line style="stroke: #808080; stroke-width: 1.5;" x1="1189" x2="1271" y1="561.5" y2="561.5"/><rect fill="none" height="6" style="stroke: #C82930; stroke-width: 1.0;" width="6" x="1196" y="570.918"/><text fill="#000000" font-family="sans-serif" font-size="11" lengthAdjust="spacingAndGlyphs" textLength="58" x="1208" y="576.9189">int eloRating</text><line style="stroke: #808080; stroke-width: 1.5;" x1="1189" x2="1271" y1="583.3359" y2="583.3359"/><!--class Team--><rect fill="#FFFFFF" filter="url(#f254bid32pt42)" height="61.8359" id="Team" style="stroke: #808080; stroke-width: 1.5;" width="135" x="1099.5" y="694"/><ellipse cx="1148.75" cy="710" fill="#ADD1B2" rx="11" ry="11" style="stroke: #808080; stroke-width: 1.0;"/><path d="M1150.75,706.5 Q1150.9531,706 1151.1875,705.75 Q1151.4219,705.5 1151.6875,705.5 Q1152.1563,705.5 1152.4531,705.7813 Q1152.75,706.0625 1152.75,706.7188 L1152.75,708.2813 Q1152.75,708.9375 1152.4688,709.2188 Q1152.1875,709.5 1151.75,709.5 Q1151.3594,709.5 1151.1094,709.3281 Q1150.8594,709.1563 1150.75,708.7031 Q1150.7031,708.3906 1150.5313,708.2188 Q1150.2188,707.8906 1149.6563,707.6953 Q1149.0938,707.5 1148.5313,707.5 Q1147.8281,707.5 1147.2422,707.7813 Q1146.6563,708.0625 1146.2031,708.6875 Q1145.75,709.3125 1145.75,710.1719 L1145.75,711.0938 Q1145.75,712.125 1146.5938,712.8125 Q1147.4375,713.5 1148.9375,713.5 Q1149.8281,713.5 1150.4531,713.2969 Q1150.8125,713.1875 1151.2188,712.8281 Q1151.4844,712.625 1151.625,712.5625 Q1151.7656,712.5 1151.9375,712.5 Q1152.2656,712.5 1152.5078,712.7578 Q1152.75,713.0156 1152.75,713.375 Q1152.75,713.7188 1152.4063,714.125 Q1151.9063,714.7188 1151.1094,715.0469 Q1150.0625,715.5 1148.7813,715.5 Q1147.2813,715.5 1146.0781,714.9063 Q1145.1094,714.4375 1144.4297,713.4219 Q1143.75,712.4063 1143.75,711.2031 L1143.75,710.1094 Q1143.75,708.8594 1144.3516,707.7656 Q1144.9531,706.6719 1146.0078,706.0859 Q1147.0625,705.5 1148.25,705.5 Q1148.9688,705.5 1149.5938,705.75 Q1150.2188,706 1150.75,706.5 Z "/><text fill="#000000" font-family="monospace" font-size="12" lengthAdjust="spacingAndGlyphs" textLength="28" x="1169.25" y="714.2305">Team</text><line style="stroke: #808080; stroke-width: 1.5;" x1="1100.5" x2="1233.5" y1="726" y2="726"/><rect fill="none" height="6" style="stroke: #C82930; stroke-width: 1.0;" width="6" x="1107.5" y="735.418"/><text fill="#000000" font-family="sans-serif" font-size="11" lengthAdjust="spacingAndGlyphs" textLength="109" x="1119.5" y="741.4189">List&lt;Player&gt; playerList</text><line style="stroke: #808080; stroke-width: 1.5;" x1="1100.5" x2="1233.5" y1="747.8359" y2="747.8359"/><!--class MatchResult--><rect fill="#FFFFFF" filter="url(#f254bid32pt42)" height="131.0156" id="MatchResult" style="stroke: #808080; stroke-width: 1.5;" width="129" x="641.5" y="495"/><ellipse cx="665.5" cy="511" fill="#ADD1B2" rx="11" ry="11" style="stroke: #808080; stroke-width: 1.0;"/><path d="M667.5,507.5 Q667.7031,507 667.9375,506.75 Q668.1719,506.5 668.4375,506.5 Q668.9063,506.5 669.2031,506.7813 Q669.5,507.0625 669.5,507.7188 L669.5,509.2813 Q669.5,509.9375 669.2188,510.2188 Q668.9375,510.5 668.5,510.5 Q668.1094,510.5 667.8594,510.3281 Q667.6094,510.1563 667.5,509.7031 Q667.4531,509.3906 667.2813,509.2188 Q666.9688,508.8906 666.4063,508.6953 Q665.8438,508.5 665.2813,508.5 Q664.5781,508.5 663.9922,508.7813 Q663.4063,509.0625 662.9531,509.6875 Q662.5,510.3125 662.5,511.1719 L662.5,512.0938 Q662.5,513.125 663.3438,513.8125 Q664.1875,514.5 665.6875,514.5 Q666.5781,514.5 667.2031,514.2969 Q667.5625,514.1875 667.9688,513.8281 Q668.2344,513.625 668.375,513.5625 Q668.5156,513.5 668.6875,513.5 Q669.0156,513.5 669.2578,513.7578 Q669.5,514.0156 669.5,514.375 Q669.5,514.7188 669.1563,515.125 Q668.6563,515.7188 667.8594,516.0469 Q666.8125,516.5 665.5313,516.5 Q664.0313,516.5 662.8281,515.9063 Q661.8594,515.4375 661.1797,514.4219 Q660.5,513.4063 660.5,512.2031 L660.5,511.1094 Q660.5,509.8594 661.1016,508.7656 Q661.7031,507.6719 662.7578,507.0859 Q663.8125,506.5 665,506.5 Q665.7188,506.5 666.3438,506.75 Q666.9688,507 667.5,507.5 Z "/><text fill="#000000" font-family="monospace" font-size="12" lengthAdjust="spacingAndGlyphs" textLength="77" x="681.5" y="515.2305">MatchResult</text><line style="stroke: #808080; stroke-width: 1.5;" x1="642.5" x2="769.5" y1="527" y2="527"/><rect fill="none" height="6" style="stroke: #C82930; stroke-width: 1.0;" width="6" x="649.5" y="536.418"/><text fill="#000000" font-family="sans-serif" font-size="11" lengthAdjust="spacingAndGlyphs" textLength="103" x="661.5" y="542.4189">Opponent opponentA</text><rect fill="none" height="6" style="stroke: #C82930; stroke-width: 1.0;" width="6" x="649.5" y="550.2539"/><text fill="#000000" font-family="sans-serif" font-size="11" lengthAdjust="spacingAndGlyphs" textLength="102" x="661.5" y="556.2549">Opponent opponentB</text><rect fill="none" height="6" style="stroke: #C82930; stroke-width: 1.0;" width="6" x="649.5" y="564.0898"/><text fill="#000000" font-family="sans-serif" font-size="11" lengthAdjust="spacingAndGlyphs" textLength="71" x="661.5" y="570.0908">double scoreA</text><rect fill="none" height="6" style="stroke: #C82930; stroke-width: 1.0;" width="6" x="649.5" y="577.9258"/><text fill="#000000" font-family="sans-serif" font-size="11" lengthAdjust="spacingAndGlyphs" textLength="70" x="661.5" y="583.9268">double scoreB</text><rect fill="none" height="6" style="stroke: #C82930; stroke-width: 1.0;" width="6" x="649.5" y="591.7617"/><text fill="#000000" font-family="sans-serif" font-size="11" lengthAdjust="spacingAndGlyphs" textLength="84" x="661.5" y="597.7627">Opponent winner</text><line style="stroke: #808080; stroke-width: 1.5;" x1="642.5" x2="769.5" y1="604.1797" y2="604.1797"/><ellipse cx="652.5" cy="616.5977" fill="#84BE84" rx="3" ry="3" style="stroke: #038048; stroke-width: 1.0;"/><text fill="#000000" font-family="sans-serif" font-size="11" lengthAdjust="spacingAndGlyphs" textLength="77" x="661.5" y="619.5986">void addGame()</text><!--class AbstractLineupSelector--><rect fill="#FFFFFF" filter="url(#f254bid32pt42)" height="131.0156" id="AbstractLineupSelector" style="stroke: #808080; stroke-width: 1.5;" width="285" x="1563.5" y="252.5"/><ellipse cx="1624.75" cy="268.5" fill="#A9DCDF" rx="11" ry="11" style="stroke: #808080; stroke-width: 1.0;"/><path d="M1626.5,270 L1623.2031,270 L1622.7656,271 L1622.7656,271 L1623.2344,271 L1623.75,271.625 L1623.75,272 L1623.75,272.375 L1623.2344,273 L1622.7656,273 L1620.875,273 L1620.2656,273 L1619.75,272.375 L1619.75,272 L1619.75,271.625 L1620.2656,271 L1620.875,271 L1623.1875,265 L1622.3125,265 L1621.2656,265 L1620.75,264.375 L1620.75,264 L1620.75,263.625 L1621.2656,263 L1622.3125,263 L1625.9844,263 L1628.6719,271 L1629.2344,271 L1629.2344,271 L1629.75,271.625 L1629.75,272 L1629.75,272.375 L1629.2344,273 L1628.6719,273 L1626.7813,273 L1626.2656,273 L1625.75,272.375 L1625.75,272 L1625.75,271.625 L1626.2656,271 L1626.7813,271 L1626.7813,271 L1626.5,270 Z M1625.9531,268 L1624.75,264.4219 L1623.7188,268 L1625.9531,268 Z "/><text fill="#000000" font-family="monospace" font-size="12" font-style="italic" lengthAdjust="spacingAndGlyphs" textLength="154" x="1645.25" y="272.7305">AbstractLineupSelector</text><line style="stroke: #808080; stroke-width: 1.5;" x1="1564.5" x2="1847.5" y1="284.5" y2="284.5"/><polygon fill="none" points="1574.5,291.918,1578.5,295.918,1574.5,299.918,1570.5,295.918" style="stroke: #B38D22; stroke-width: 1.0;"/><text fill="#000000" font-family="sans-serif" font-size="11" lengthAdjust="spacingAndGlyphs" textLength="156" x="1583.5" y="299.9189">boolean useOfficialLeagueRules</text><polygon fill="none" points="1574.5,305.7539,1578.5,309.7539,1574.5,313.7539,1570.5,309.7539" style="stroke: #B38D22; stroke-width: 1.0;"/><text fill="#000000" font-family="sans-serif" font-size="11" lengthAdjust="spacingAndGlyphs" textLength="91" x="1583.5" y="313.7549">int gamesPerMatch</text><polygon fill="none" points="1574.5,319.5898,1578.5,323.5898,1574.5,327.5898,1570.5,323.5898" style="stroke: #B38D22; stroke-width: 1.0;"/><text fill="#000000" font-family="sans-serif" font-size="11" lengthAdjust="spacingAndGlyphs" textLength="155" x="1583.5" y="327.5908">String optimizeLineupTeamName</text><polygon fill="none" points="1574.5,333.4258,1578.5,337.4258,1574.5,341.4258,1570.5,337.4258" style="stroke: #B38D22; stroke-width: 1.0;"/><text fill="#000000" font-family="sans-serif" font-size="11" lengthAdjust="spacingAndGlyphs" textLength="176" x="1583.5" y="341.4268">List&lt;Player&gt; alreadySelectedPlayers</text><line style="stroke: #808080; stroke-width: 1.5;" x1="1564.5" x2="1847.5" y1="347.8438" y2="347.8438"/><ellipse cx="1574.5" cy="360.2617" fill="#84BE84" rx="3" ry="3" style="stroke: #038048; stroke-width: 1.0;"/><text fill="#000000" font-family="sans-serif" font-size="11" lengthAdjust="spacingAndGlyphs" textLength="140" x="1583.5" y="363.2627">Player pickPlayerFromTeam()</text><polygon fill="#FFFF44" points="1574.5,369.0977,1578.5,373.0977,1574.5,377.0977,1570.5,373.0977" style="stroke: #B38D22; stroke-width: 1.0;"/><text fill="#000000" font-family="sans-serif" font-size="11" font-style="italic" lengthAdjust="spacingAndGlyphs" textLength="259" x="1583.5" y="377.0986">Map&lt;Player, Double&gt; calculateLineupProbabilities()</text><!--class AscendingRatingSelection--><rect fill="#FFFFFF" filter="url(#f254bid32pt42)" height="48" id="AscendingRatingSelection" style="stroke: #808080; stroke-width: 1.5;" width="200" x="1328" y="294"/><ellipse cx="1343" cy="310" fill="#ADD1B2" rx="11" ry="11" style="stroke: #808080; stroke-width: 1.0;"/><path d="M1345,306.5 Q1345.2031,306 1345.4375,305.75 Q1345.6719,305.5 1345.9375,305.5 Q1346.4063,305.5 1346.7031,305.7813 Q1347,306.0625 1347,306.7188 L1347,308.2813 Q1347,308.9375 1346.7188,309.2188 Q1346.4375,309.5 1346,309.5 Q1345.6094,309.5 1345.3594,309.3281 Q1345.1094,309.1563 1345,308.7031 Q1344.9531,308.3906 1344.7813,308.2188 Q1344.4688,307.8906 1343.9063,307.6953 Q1343.3438,307.5 1342.7813,307.5 Q1342.0781,307.5 1341.4922,307.7813 Q1340.9063,308.0625 1340.4531,308.6875 Q1340,309.3125 1340,310.1719 L1340,311.0938 Q1340,312.125 1340.8438,312.8125 Q1341.6875,313.5 1343.1875,313.5 Q1344.0781,313.5 1344.7031,313.2969 Q1345.0625,313.1875 1345.4688,312.8281 Q1345.7344,312.625 1345.875,312.5625 Q1346.0156,312.5 1346.1875,312.5 Q1346.5156,312.5 1346.7578,312.7578 Q1347,313.0156 1347,313.375 Q1347,313.7188 1346.6563,314.125 Q1346.1563,314.7188 1345.3594,315.0469 Q1344.3125,315.5 1343.0313,315.5 Q1341.5313,315.5 1340.3281,314.9063 Q1339.3594,314.4375 1338.6797,313.4219 Q1338,312.4063 1338,311.2031 L1338,310.1094 Q1338,308.8594 1338.6016,307.7656 Q1339.2031,306.6719 1340.2578,306.0859 Q1341.3125,305.5 1342.5,305.5 Q1343.2188,305.5 1343.8438,305.75 Q1344.4688,306 1345,306.5 Z "/><text fill="#000000" font-family="monospace" font-size="12" lengthAdjust="spacingAndGlyphs" textLength="168" x="1357" y="314.2305">AscendingRatingSelection</text><line style="stroke: #808080; stroke-width: 1.5;" x1="1329" x2="1527" y1="326" y2="326"/><line style="stroke: #808080; stroke-width: 1.5;" x1="1329" x2="1527" y1="334" y2="334"/><!--class DescendingRatingSelection--><rect fill="#FFFFFF" filter="url(#f254bid32pt42)" height="48" id="DescendingRatingSelection" style="stroke: #808080; stroke-width: 1.5;" width="207" x="1602.5" y="81"/><ellipse cx="1617.5" cy="97" fill="#ADD1B2" rx="11" ry="11" style="stroke: #808080; stroke-width: 1.0;"/><path d="M1619.5,93.5 Q1619.7031,93 1619.9375,92.75 Q1620.1719,92.5 1620.4375,92.5 Q1620.9063,92.5 1621.2031,92.7813 Q1621.5,93.0625 1621.5,93.7188 L1621.5,95.2813 Q1621.5,95.9375 1621.2188,96.2188 Q1620.9375,96.5 1620.5,96.5 Q1620.1094,96.5 1619.8594,96.3281 Q1619.6094,96.1563 1619.5,95.7031 Q1619.4531,95.3906 1619.2813,95.2188 Q1618.9688,94.8906 1618.4063,94.6953 Q1617.8438,94.5 1617.2813,94.5 Q1616.5781,94.5 1615.9922,94.7813 Q1615.4063,95.0625 1614.9531,95.6875 Q1614.5,96.3125 1614.5,97.1719 L1614.5,98.0938 Q1614.5,99.125 1615.3438,99.8125 Q1616.1875,100.5 1617.6875,100.5 Q1618.5781,100.5 1619.2031,100.2969 Q1619.5625,100.1875 1619.9688,99.8281 Q1620.2344,99.625 1620.375,99.5625 Q1620.5156,99.5 1620.6875,99.5 Q1621.0156,99.5 1621.2578,99.7578 Q1621.5,100.0156 1621.5,100.375 Q1621.5,100.7188 1621.1563,101.125 Q1620.6563,101.7188 1619.8594,102.0469 Q1618.8125,102.5 1617.5313,102.5 Q1616.0313,102.5 1614.8281,101.9063 Q1613.8594,101.4375 1613.1797,100.4219 Q1612.5,99.4063 1612.5,98.2031 L1612.5,97.1094 Q1612.5,95.8594 1613.1016,94.7656 Q1613.7031,93.6719 1614.7578,93.0859 Q1615.8125,92.5 1617,92.5 Q1617.7188,92.5 1618.3438,92.75 Q1618.9688,93 1619.5,93.5 Z "/><text fill="#000000" font-family="monospace" font-size="12" lengthAdjust="spacingAndGlyphs" textLength="175" x="1631.5" y="101.2305">DescendingRatingSelection</text><line style="stroke: #808080; stroke-width: 1.5;" x1="1603.5" x2="1808.5" y1="113" y2="113"/><line style="stroke: #808080; stroke-width: 1.5;" x1="1603.5" x2="1808.5" y1="121" y2="121"/><!--class RandomSelection--><rect fill="#FFFFFF" filter="url(#f254bid32pt42)" height="48" id="RandomSelection" style="stroke: #808080; stroke-width: 1.5;" width="137" x="1883.5" y="294"/><ellipse cx="1898.5" cy="310" fill="#ADD1B2" rx="11" ry="11" style="stroke: #808080; stroke-width: 1.0;"/><path d="M1900.5,306.5 Q1900.7031,306 1900.9375,305.75 Q1901.1719,305.5 1901.4375,305.5 Q1901.9063,305.5 1902.2031,305.7813 Q1902.5,306.0625 1902.5,306.7188 L1902.5,308.2813 Q1902.5,308.9375 1902.2188,309.2188 Q1901.9375,309.5 1901.5,309.5 Q1901.1094,309.5 1900.8594,309.3281 Q1900.6094,309.1563 1900.5,308.7031 Q1900.4531,308.3906 1900.2813,308.2188 Q1899.9688,307.8906 1899.4063,307.6953 Q1898.8438,307.5 1898.2813,307.5 Q1897.5781,307.5 1896.9922,307.7813 Q1896.4063,308.0625 1895.9531,308.6875 Q1895.5,309.3125 1895.5,310.1719 L1895.5,311.0938 Q1895.5,312.125 1896.3438,312.8125 Q1897.1875,313.5 1898.6875,313.5 Q1899.5781,313.5 1900.2031,313.2969 Q1900.5625,313.1875 1900.9688,312.8281 Q1901.2344,312.625 1901.375,312.5625 Q1901.5156,312.5 1901.6875,312.5 Q1902.0156,312.5 1902.2578,312.7578 Q1902.5,313.0156 1902.5,313.375 Q1902.5,313.7188 1902.1563,314.125 Q1901.6563,314.7188 1900.8594,315.0469 Q1899.8125,315.5 1898.5313,315.5 Q1897.0313,315.5 1895.8281,314.9063 Q1894.8594,314.4375 1894.1797,313.4219 Q1893.5,312.4063 1893.5,311.2031 L1893.5,310.1094 Q1893.5,308.8594 1894.1016,307.7656 Q1894.7031,306.6719 1895.7578,306.0859 Q1896.8125,305.5 1898,305.5 Q1898.7188,305.5 1899.3438,305.75 Q1899.9688,306 1900.5,306.5 Z "/><text fill="#000000" font-family="monospace" font-size="12" lengthAdjust="spacingAndGlyphs" textLength="105" x="1912.5" y="314.2305">RandomSelection</text><line style="stroke: #808080; stroke-width: 1.5;" x1="1884.5" x2="2019.5" y1="326" y2="326"/><line style="stroke: #808080; stroke-width: 1.5;" x1="1884.5" x2="2019.5" y1="334" y2="334"/><!--link ResultPrediction to PredictionModel--><path d="M219.268,105 C235.834,105 253.492,105 271.256,105 " fill="none" id="ResultPrediction-PredictionModel" style="stroke: #A80036; stroke-width: 1.0; stroke-dasharray: 7.0,7.0;"/><polygon fill="#A80036" points="214.163,105,223.163,109,219.163,105,223.163,101,214.163,105" style="stroke: #A80036; stroke-width: 1.0;"/><text fill="#000000" font-family="sans-serif" font-size="13" lengthAdjust="spacingAndGlyphs" textLength="21" x="232.25" y="98.4951">use</text><!--link PredictionModel to ChessPredictionModel--><path d="M416.404,155.932 C412.569,172.446 408.144,191.502 403.71,210.597 " fill="none" id="PredictionModel-ChessPredictionModel" style="stroke: #A80036; stroke-width: 1.0;"/><polygon fill="none" points="409.637,154.129,420.979,136.231,423.274,157.296,409.637,154.129" style="stroke: #A80036; stroke-width: 1.0;"/><!--link ChessLeagueSimulation to LeagueSimulation--><path d="M841,129.387 C841,155.824 841,200.263 841,239.257 " fill="none" id="ChessLeagueSimulation-LeagueSimulation" style="stroke: #A80036; stroke-width: 1.0;"/><polygon fill="none" points="848,239.322,841,259.322,834,239.321,848,239.322" style="stroke: #A80036; stroke-width: 1.0;"/><!--link Match to TeamMatch--><path d="M934.646,653.252 C935.544,667.845 936.414,681.979 937.137,693.7267 " fill="none" id="Match-TeamMatch" style="stroke: #A80036; stroke-width: 1.0;"/><polygon fill="none" points="927.657,653.64,933.415,633.248,941.631,652.78,927.657,653.64" style="stroke: #A80036; stroke-width: 1.0;"/><!--link Match to HeadToHeadMatch--><path d="M816.338,645.096 C788.639,665.649 761.21,686.001 741.149,700.8873 " fill="none" id="Match-HeadToHeadMatch" style="stroke: #A80036; stroke-width: 1.0;"/><polygon fill="none" points="812.392,639.308,832.625,633.011,820.735,650.551,812.392,639.308" style="stroke: #A80036; stroke-width: 1.0;"/><!--link MatchResult to Match--><path d="M775.58,560.5 C792.1,560.5 810.057,560.5 827.673,560.5 " fill="none" id="MatchResult-Match" style="stroke: #A80036; stroke-width: 1.0; stroke-dasharray: 7.0,7.0;"/><polygon fill="#A80036" points="770.501,560.5,779.501,564.5,775.501,560.5,779.501,556.5,770.501,560.5" style="stroke: #A80036; stroke-width: 1.0;"/><text fill="#000000" font-family="sans-serif" font-size="13" lengthAdjust="spacingAndGlyphs" textLength="21" x="788.75" y="553.9951">use</text><!--link Opponent to Player--><path d="M1173.58,560.5 C1178.33,560.5 1183.08,560.5 1187.83,560.5 " fill="none" id="Opponent-Player" style="stroke: #A80036; stroke-width: 1.0;"/><polygon fill="none" points="1173.43,567.5,1153.43,560.5,1173.43,553.5,1173.43,567.5" style="stroke: #A80036; stroke-width: 1.0;"/><!--link Opponent to Team--><path d="M1126.54,610.654 C1136.23,637.803 1147.96,670.648 1156.28,693.9775 " fill="none" id="Opponent-Team" style="stroke: #A80036; stroke-width: 1.0;"/><polygon fill="none" points="1119.9,612.873,1119.77,591.684,1133.09,608.167,1119.9,612.873" style="stroke: #A80036; stroke-width: 1.0;"/><!--link Match to Opponent--><path d="M1043.44,560.5 C1050.53,560.5 1057.62,560.5 1064.7,560.5 " fill="none" id="Match-Opponent" style="stroke: #A80036; stroke-width: 1.0;"/><polygon fill="#A80036" points="1030.25,560.5,1036.25,564.5,1042.25,560.5,1036.25,556.5,1030.25,560.5" style="stroke: #A80036; stroke-width: 1.0;"/><!--link LeagueSettings to Opponent--><path d="M1129.29,396.842 C1123.66,441.997 1116.88,496.304 1112.76,529.343 " fill="none" id="LeagueSettings-Opponent" style="stroke: #A80036; stroke-width: 1.0;"/><polygon fill="#A80036" points="1130.92,383.766,1126.2083,389.2249,1129.4352,395.6738,1134.1468,390.2148,1130.92,383.766" style="stroke: #A80036; stroke-width: 1.0;"/><!--link LeagueSimulation to Match--><path d="M866.645,389.086 C877.991,420.095 891.322,456.527 902.739,487.729 " fill="none" id="LeagueSimulation-Match" style="stroke: #A80036; stroke-width: 1.0;"/><polygon fill="#A80036" points="862.078,376.606,860.3833,383.6151,866.2015,387.8753,867.8962,380.8662,862.078,376.606" style="stroke: #A80036; stroke-width: 1.0;"/><!--link LeagueSimulation to LeagueSettings--><path d="M959.206,318 C976.288,318 993.936,318 1011.2,318 " fill="none" id="LeagueSimulation-LeagueSettings" style="stroke: #A80036; stroke-width: 1.0; stroke-dasharray: 7.0,7.0;"/><polygon fill="#A80036" points="1016.54,318,1007.54,314,1011.54,318,1007.54,322,1016.54,318" style="stroke: #A80036; stroke-width: 1.0;"/><text fill="#000000" font-family="sans-serif" font-size="13" lengthAdjust="spacingAndGlyphs" textLength="21" x="977.5" y="311.4951">use</text><!--link AscendingRatingSelection to AbstractLineupSelector--><path d="M1528.18,318 C1533.2,318 1538.23,318 1543.25,318 " fill="none" id="AscendingRatingSelection-AbstractLineupSelector" style="stroke: #A80036; stroke-width: 1.0;"/><polygon fill="none" points="1543.26,311,1563.26,318,1543.26,325,1543.26,311" style="stroke: #A80036; stroke-width: 1.0;"/><!--link DescendingRatingSelection to AbstractLineupSelector--><path d="M1706,129.387 C1706,154.193 1706,194.849 1706,231.984 " fill="none" id="DescendingRatingSelection-AbstractLineupSelector" style="stroke: #A80036; stroke-width: 1.0;"/><polygon fill="none" points="1713,232.129,1706,252.129,1699,232.129,1713,232.129" style="stroke: #A80036; stroke-width: 1.0;"/><!--link AbstractLineupSelector to RandomSelection--><path d="M1868.76,318 C1873.64,318 1878.52,318 1883.4,318 " fill="none" id="AbstractLineupSelector-RandomSelection" style="stroke: #A80036; stroke-width: 1.0;"/><polygon fill="none" points="1868.7,325,1848.7,318,1868.7,311,1868.7,325" style="stroke: #A80036; stroke-width: 1.0;"/><!--
@startuml

skinparam class {
    FontColor black
    BackgroundColor white
    BorderColor grey
    FontName Monospaced
}
package "Prediction" {
    interface PredictionModel {
        +ResultPrediction calculatePrediction(Player one, Player two)
    }

    class ChessPredictionModel {
        +boolean useEloRating
        +boolean useHomeAdvantage
        +boolean usePlayerPerformances
        +boolean useRatingRegularization
        -double calculateExpectedWinWhite(Player white, Player black)
        -double calculateExpectedWinBlack(double expectedWinWhite)
        -double calculateAdvantageWhite(double expectedWinWhite)
        -double calculateColorStrengthAsWhite(Player player)
        -double calculateColorStrengthAsBlack(Player player)
        -double calculateExpectedDraw(Player white, Player black)
        -double calculateColorStrengthDraw(Player white, Player black)
        -double incorporateDrawProbability(double expectedWin, double expectedDraw)
    }

    class ResultPrediction {
        -double expectedWinPlayerOne
        -double expectedDraw
        -double expectedWinPlayerTwo
    }
    ResultPrediction <. PredictionModel : use
    PredictionModel <|- - ChessPredictionModel
}

package "Simulation" {
    abstract class LeagueSimulation<T extends Match> #white {
        #RandomGenerator randomGenerator
        #LeagueSettings settings
        #List<T> matchList
        +{abstract} List<T> initializeMatchList()
        +{abstract} SimulationResult runSimulation()
    }

    class ChessLeagueSimulation {
    }

    class LeagueSettings<T extends Opponent> {
        PredictionModel predictionModel
        AbstractLineupSelector lineupSelector
        List<T> opponentList
        int roundsPerSeason
        int roundsToSimulate
        Map<Integer, List<HeadToHeadMatch>> rounds
    }

    abstract Match<T extends Opponent> {
        #RandomGenerator randomGenerator
        #PredictionModel predictionModel
        #T opponentA
        #T opponentB
        #MatchResult matchPrediction
        #MatchResult matchResult
        +{abstract}MatchResult playMatch()
    }

    class HeadToHeadMatch {

    }

    class TeamMatch {
        -List<HeadToHeadMatch> headToHeadMatches
    }

    abstract Opponent {
        #String name
    }

    class Player {
        -int eloRating
    }

    class Team {
        -List<Player> playerList
    }

    class MatchResult {
        -Opponent opponentA
        -Opponent opponentB
        -double scoreA
        -double scoreB
        -Opponent winner
        +void addGame()
    }

    ChessLeagueSimulation - -|> LeagueSimulation
    Match <|- - TeamMatch
    Match <|- - HeadToHeadMatch

    MatchResult <. Match : use

    Opponent <|- Player
    Opponent <|- - Team

    Match *- Opponent
    LeagueSettings *- - Opponent
    LeagueSimulation *- - Match

    LeagueSimulation .> LeagueSettings : use
}

package "Lineup" {
    abstract AbstractLineupSelector {
        #boolean useOfficialLeagueRules
        #int gamesPerMatch
        #String optimizeLineupTeamName
        #List<Player> alreadySelectedPlayers
        +Player pickPlayerFromTeam()
        #{abstract} Map<Player, Double> calculateLineupProbabilities()
    }
    AscendingRatingSelection -|> AbstractLineupSelector
    DescendingRatingSelection - -|> AbstractLineupSelector
    AbstractLineupSelector <|- RandomSelection
}
@enduml

PlantUML version 1.2018.01(Sun Jan 28 19:08:22 CET 2018)
(GPL source distribution)
Java Runtime: OpenJDK Runtime Environment
JVM: OpenJDK 64-Bit Server VM
Java Version: 1.8.0_152-release-1136-b39
Operating System: Windows 7
OS Version: 6.1
Default Encoding: Cp1252
Language: de
Country: DE
--></g></svg>